<svg xmlns="http://www.w3.org/2000/svg" width="121.025" height="124.782" viewBox="0 0 121.025 124.782">
  <g id="Ahmedabad" transform="translate(-0.39 -0.218)">
    <path id="Stroke_2" data-name="Stroke 2" d="M0,9H5V0H0Z" transform="translate(40 20)" fill="#e2d9ad" stroke="#231f20" stroke-miterlimit="10" stroke-width="1"/>
    <path id="Stroke_4" data-name="Stroke 4" d="M5,6H0L0,0H5Z" transform="translate(40 8)" fill="#e2d9ad" stroke="#231f20" stroke-miterlimit="10" stroke-width="1"/>
    <path id="Stroke_6" data-name="Stroke 6" d="M8,10H0V0H7.993Z" transform="translate(38 34)" fill="#e2d9ad" stroke="#231f20" stroke-miterlimit="10" stroke-width="1"/>
    <path id="Stroke_8" data-name="Stroke 8" d="M0,42.53H8.262V0H0Z" transform="translate(37.863 50.574)" fill="#e2d9ad" stroke="#231f20" stroke-miterlimit="10" stroke-width="1"/>
    <path id="Stroke_11" data-name="Stroke 11" d="M3.33,0C7.135,1.672,6.638,3.667,6.638,3.667A1.511,1.511,0,0,1,5.289,5.3H1.367A1.514,1.514,0,0,1,.022,3.667S-.479,1.672,3.33,0Z" transform="translate(38.664 2.835)" fill="#faf3d3" stroke="#231f20" stroke-linecap="round" stroke-linejoin="round" stroke-miterlimit="10" stroke-width="1"/>
    <path id="Stroke_13" data-name="Stroke 13" d="M0,2.117V0" transform="translate(41.994 0.718)" fill="none" stroke="#231f20" stroke-linecap="round" stroke-linejoin="round" stroke-miterlimit="10" stroke-width="1"/>
    <path id="Stroke_16" data-name="Stroke 16" d="M7.894,3.7A1.569,1.569,0,0,1,6.353,5.3H1.534A1.564,1.564,0,0,1,0,3.7V1.6A1.566,1.566,0,0,1,1.534,0H6.353A1.571,1.571,0,0,1,7.894,1.6Z" transform="translate(38.049 14.38)" fill="#faf3d3" stroke="#231f20" stroke-linecap="round" stroke-linejoin="round" stroke-miterlimit="10" stroke-width="1"/>
    <path id="Stroke_18" data-name="Stroke 18" d="M10.9,3.952A1.553,1.553,0,0,1,9.317,5.471H1.581A1.55,1.55,0,0,1,0,3.952V1.52A1.55,1.55,0,0,1,1.581,0H9.317A1.553,1.553,0,0,1,10.9,1.52Z" transform="translate(36.545 28.568)" fill="#faf3d3" stroke="#231f20" stroke-linecap="round" stroke-linejoin="round" stroke-miterlimit="10" stroke-width="1"/>
    <path id="Stroke_20" data-name="Stroke 20" d="M12.184,5.042A1.584,1.584,0,0,1,10.6,6.621H1.584A1.583,1.583,0,0,1,0,5.042V1.579A1.581,1.581,0,0,1,1.584,0H10.6a1.582,1.582,0,0,1,1.584,1.579Z" transform="translate(35.904 43.954)" fill="#faf3d3" stroke="#231f20" stroke-linecap="round" stroke-linejoin="round" stroke-miterlimit="10" stroke-width="1"/>
    <path id="Stroke_22" data-name="Stroke 22" d="M0,11.916V9.674c0-2.75,2.835-4.884,5.6-5.956C11.378,1.466,12.821,0,12.821,0s1.437,1.466,7.223,3.718c2.758,1.072,5.6,3.207,5.6,5.956V12.71a9.344,9.344,0,0,0-1.731-.948c-3.9,1.626-3.7,3.743-3.7,3.743H20.2s.21-2.117-3.691-3.743c-3.9,1.626-3.7,3.743-3.7,3.743h.007s.206-2.117-3.694-3.743c-3.9,1.626-3.7,3.743-3.7,3.743h.007s.208-2.117-3.689-3.743A9.373,9.373,0,0,0,0,12.723Z" transform="translate(48.087 36.191)" fill="#faf3d3" stroke="#231f20" stroke-linecap="round" stroke-linejoin="round" stroke-miterlimit="10" stroke-width="1"/>
    <path id="Stroke_24" data-name="Stroke 24" d="M0,4.583V0" transform="translate(60.905 31.747)" fill="none" stroke="#231f20" stroke-linecap="round" stroke-linejoin="round" stroke-miterlimit="10" stroke-width="1"/>
    <path id="Stroke_27" data-name="Stroke 27" d="M0,35.188H29.555V0H0Z" transform="translate(46.129 57.916)" fill="#faf3d3" stroke="#231f20" stroke-linecap="round" stroke-linejoin="round" stroke-miterlimit="10" stroke-width="1"/>
    <path id="Stroke_29" data-name="Stroke 29" d="M0,8.885H4.776V0H0Z" transform="translate(77.427 19.683)" fill="#e2d9ad" stroke="#231f20" stroke-miterlimit="10" stroke-width="1"/>
    <path id="Stroke_31" data-name="Stroke 31" d="M4.772,6.451H0V0H4.776Z" transform="translate(77.428 8.136)" fill="#e2d9ad" stroke="#231f20" stroke-miterlimit="10" stroke-width="1"/>
    <path id="Stroke_33" data-name="Stroke 33" d="M0,9.914H8.262V0H0Z" transform="translate(75.683 34.039)" fill="#e2d9ad" stroke="#231f20" stroke-miterlimit="10" stroke-width="1"/>
    <path id="Stroke_35" data-name="Stroke 35" d="M0,42.53H8.262V0H0Z" transform="translate(75.683 50.574)" fill="#e2d9ad" stroke="#231f20" stroke-miterlimit="10" stroke-width="1"/>
    <path id="Stroke_37" data-name="Stroke 37" d="M3.33,0C7.135,1.672,6.638,3.667,6.638,3.667A1.514,1.514,0,0,1,5.289,5.3H1.367A1.511,1.511,0,0,1,.022,3.667S-.479,1.672,3.33,0Z" transform="translate(76.487 2.835)" fill="#faf3d3" stroke="#231f20" stroke-linecap="round" stroke-linejoin="round" stroke-miterlimit="10" stroke-width="1"/>
    <path id="Stroke_39" data-name="Stroke 39" d="M0,2.117V0" transform="translate(79.817 0.718)" fill="none" stroke="#231f20" stroke-linecap="round" stroke-linejoin="round" stroke-miterlimit="10" stroke-width="1"/>
    <path id="Stroke_42" data-name="Stroke 42" d="M7.9,3.558A1.535,1.535,0,0,1,6.357,5.094H1.541A1.536,1.536,0,0,1,0,3.558V1.538A1.538,1.538,0,0,1,1.541,0H6.357A1.536,1.536,0,0,1,7.9,1.538Z" transform="translate(75.865 14.588)" fill="#faf3d3" stroke="#231f20" stroke-linecap="round" stroke-linejoin="round" stroke-miterlimit="10" stroke-width="1"/>
    <path id="Stroke_44" data-name="Stroke 44" d="M10.894,3.952A1.548,1.548,0,0,1,9.317,5.471H1.577A1.546,1.546,0,0,1,0,3.952V1.52A1.547,1.547,0,0,1,1.577,0h7.74a1.548,1.548,0,0,1,1.577,1.52Z" transform="translate(74.369 28.568)" fill="#faf3d3" stroke="#231f20" stroke-linecap="round" stroke-linejoin="round" stroke-miterlimit="10" stroke-width="1"/>
    <path id="Stroke_46" data-name="Stroke 46" d="M12.18,5.042A1.579,1.579,0,0,1,10.6,6.621H1.581A1.581,1.581,0,0,1,0,5.042V1.579A1.579,1.579,0,0,1,1.581,0H10.6A1.577,1.577,0,0,1,12.18,1.579Z" transform="translate(73.724 43.954)" fill="#faf3d3" stroke="#231f20" stroke-linecap="round" stroke-linejoin="round" stroke-miterlimit="10" stroke-width="1"/>
    <path id="Stroke_48" data-name="Stroke 48" d="M27.6,1.043v-.1A9.414,9.414,0,0,0,25.868,0c-3.9,1.626-3.7,3.743-3.7,3.743h-.007S22.371,1.626,18.47,0c-3.332,1.389-3.669,3.124-3.7,3.6-.029-.48-.362-2.215-3.691-3.6C7.765,1.386,7.419,3.11,7.39,3.6,7.363,3.11,7.022,1.386,3.7,0A9.213,9.213,0,0,0,1.959.961v.082A1.585,1.585,0,0,1,.375,2.622H0l0,0v7.34H29.555V2.622h-.379A1.582,1.582,0,0,1,27.6,1.043Z" transform="translate(46.128 47.953)" fill="#e2d9ad" stroke="#231f20" stroke-miterlimit="10" stroke-width="1"/>
    <path id="Stroke_50" data-name="Stroke 50" d="M16.651,8.027V26.032H0V8.027H1.478C1.86,6.044,3.265,2.592,8.328,0h0C13.4,2.592,14.8,6.044,15.184,8.027Z" transform="translate(52.58 67.072)" fill="#e2d9ad" stroke="#231f20" stroke-miterlimit="10" stroke-width="1"/>
    <path id="Stroke_52" data-name="Stroke 52" d="M36.962,3.737s.21-2.115-3.69-3.737c-3.9,1.622-3.7,3.737-3.7,3.737h-.007S29.775,1.622,25.878,0c-3.9,1.622-3.7,3.737-3.7,3.737h.007S22.389,1.622,18.488,0c-3.9,1.622-3.7,3.737-3.7,3.737h-.007S15,1.622,11.1,0c-3.9,1.622-3.7,3.737-3.7,3.737H7.4s.2-2.115-3.7-3.737c-3.9,1.622-3.7,3.737-3.7,3.737L0,4.056V9.181H36.962V3.737Z" transform="translate(83.941 54.412)" fill="#e2d9ad" stroke="#231f20" stroke-miterlimit="10" stroke-width="1"/>
    <path id="Stroke_54" data-name="Stroke 54" d="M0,2.63V0" transform="translate(102.401 42.302)" fill="none" stroke="#231f20" stroke-linecap="round" stroke-linejoin="round" stroke-miterlimit="10" stroke-width="1"/>
    <path id="Stroke_57" data-name="Stroke 57" d="M.007,13.218s-.2-2.115,3.7-3.737C7.607,11.1,7.4,13.218,7.4,13.218H7.4s-.2-2.115,3.7-3.737c3.9,1.622,3.692,3.737,3.692,3.737h-.007s-.2-2.115,3.7-3.737c3.9,1.622,3.685,3.737,3.685,3.737l.011-1.36V9.6c0-2.728-2.453-4.845-4.839-5.908C12.342,1.454,11.1,0,11.1,0S9.85,1.454,4.846,3.687C2.463,4.75,0,6.867,0,9.6v2.223Z" transform="translate(91.328 44.932)" fill="#faf3d3" stroke="#231f20" stroke-linecap="round" stroke-linejoin="round" stroke-miterlimit="10" stroke-width="1"/>
    <path id="Stroke_59" data-name="Stroke 59" d="M0,29.511H36.962V0H0Z" transform="translate(83.941 63.593)" fill="#faf3d3" stroke="#231f20" stroke-miterlimit="10" stroke-width="1"/>
    <path id="Stroke_61" data-name="Stroke 61" d="M13.721,6.609V21.88H0L0,6.609H1.225C1.538,4.979,2.691,2.135,6.864,0h0c4.166,2.135,5.325,4.979,5.637,6.609Z" transform="translate(95.562 71.224)" fill="#e2d9ad" stroke="#231f20" stroke-miterlimit="10" stroke-width="1"/>
    <path id="Stroke_63" data-name="Stroke 63" d="M0,3.737S-.206,1.622,3.694,0c3.9,1.622,3.7,3.737,3.7,3.737h0S7.187,1.622,11.088,0c3.9,1.622,3.7,3.737,3.7,3.737H14.78S14.574,1.622,18.474,0c3.9,1.622,3.7,3.737,3.7,3.737h0S21.967,1.622,25.871,0c3.9,1.622,3.7,3.737,3.7,3.737h0S29.357,1.622,33.258,0c3.893,1.622,3.7,3.737,3.7,3.737l.011.319V9.181H0V4.164Z" transform="translate(0.897 54.412)" fill="#e2d9ad" stroke="#231f20" stroke-miterlimit="10" stroke-width="1"/>
    <path id="Stroke_65" data-name="Stroke 65" d="M0,2.63V0" transform="translate(19.402 42.302)" fill="none" stroke="#231f20" stroke-linecap="round" stroke-linejoin="round" stroke-miterlimit="10" stroke-width="1"/>
    <path id="Stroke_68" data-name="Stroke 68" d="M22.181,13.218s.2-2.115-3.7-3.737c-3.9,1.622-3.692,3.737-3.692,3.737h0s.2-2.115-3.7-3.737c-3.9,1.622-3.692,3.737-3.692,3.737H7.4S7.6,11.1,3.7,9.48C-.2,11.1.011,13.218.011,13.218L0,11.857V9.6C0,6.867,2.456,4.75,4.842,3.687,9.85,1.454,11.093,0,11.093,0s1.249,1.454,6.249,3.687c2.386,1.063,4.849,3.18,4.849,5.908v2.223Z" transform="translate(8.284 44.932)" fill="#faf3d3" stroke="#231f20" stroke-linecap="round" stroke-linejoin="round" stroke-miterlimit="10" stroke-width="1"/>
    <path id="Stroke_70" data-name="Stroke 70" d="M0,29.511H36.966V0H0Z" transform="translate(0.897 63.593)" fill="#faf3d3" stroke="#231f20" stroke-miterlimit="10" stroke-width="1"/>
    <path id="Stroke_72" data-name="Stroke 72" d="M0,6.609V21.88H13.718l.007-15.272H12.5C12.184,4.979,11.03,2.135,6.861,0H6.854C2.688,2.135,1.532,4.979,1.216,6.609Z" transform="translate(12.517 71.224)" fill="#e2d9ad" stroke="#231f20" stroke-miterlimit="10" stroke-width="1"/>
    <text id="Ahmedabad-2" data-name="Ahmedabad" transform="translate(27 122)" font-size="13" font-family="SegoeUI, Segoe UI"><tspan x="0" y="0">Ahmedabad</tspan></text>
  </g>
</svg>
