<svg xmlns="http://www.w3.org/2000/svg" width="128.047" height="121.848" viewBox="0 0 128.047 121.848">
  <g id="Banaglore" transform="translate(0.524 -0.152)">
    <path id="Stroke_3" data-name="Stroke 3" d="M11.994,0C25.717,5.678,23.923,12.444,23.923,12.444c0,3.068-2.17,5.556-4.858,5.556H4.931C2.257,18,.079,15.512.079,12.444.079,12.444-1.729,5.678,11.994,0Z" transform="translate(51 7)" fill="#f7f6da" stroke="#231f20" stroke-miterlimit="10" stroke-width="1"/>
    <g id="Group_8" data-name="Group 8" transform="translate(62)">
      <path id="Fill_5" data-name="Fill 5" d="M0,5.859V0" transform="translate(0.993 0.652)" fill="#fff"/>
      <path id="Stroke_7" data-name="Stroke 7" d="M0,5.859V0" transform="translate(0.993 0.652)" fill="none" stroke="#231f20" stroke-linecap="round" stroke-linejoin="round" stroke-miterlimit="10" stroke-width="1"/>
    </g>
    <path id="Stroke_11" data-name="Stroke 11" d="M0,9H29V0H0Z" transform="translate(49 25)" fill="#ededc2" stroke="#231f20" stroke-miterlimit="10" stroke-width="1"/>
    <path id="Stroke_13" data-name="Stroke 13" d="M0,36H9V0H0Z" transform="translate(37 48)" fill="#ededc2" stroke="#231f20" stroke-miterlimit="10" stroke-width="1"/>
    <path id="Stroke_15" data-name="Stroke 15" d="M7,0C15,3.152,13.955,6.909,13.955,6.909A2.971,2.971,0,0,1,11.115,10H2.874A2.97,2.97,0,0,1,.046,6.909S-1.008,3.152,7,0Z" transform="translate(35 38)" fill="none" stroke="#231f20" stroke-miterlimit="10" stroke-width="1"/>
    <path id="Stroke_17" data-name="Stroke 17" d="M0,3.656V0" transform="translate(42.141 34.246)" fill="none" stroke="#231f20" stroke-linecap="round" stroke-linejoin="round" stroke-miterlimit="10" stroke-width="1"/>
    <path id="Stroke_20" data-name="Stroke 20" d="M0,36H9V0H0Z" transform="translate(80 48)" fill="#ededc2" stroke="#231f20" stroke-miterlimit="10" stroke-width="1"/>
    <path id="Stroke_22" data-name="Stroke 22" d="M7,0c8,3.152,6.955,6.909,6.955,6.909A2.968,2.968,0,0,1,11.119,10H2.877a2.269,2.269,0,0,1-.356-.026A3.007,3.007,0,0,1,.045,6.909s-.585-2.1,2.469-4.484A18.01,18.01,0,0,1,7,0Z" transform="translate(78 38)" fill="#f7f6da" stroke="#231f20" stroke-miterlimit="10" stroke-width="1"/>
    <path id="Stroke_24" data-name="Stroke 24" d="M0,3.656V0" transform="translate(84.907 34.246)" fill="none" stroke="#231f20" stroke-linecap="round" stroke-linejoin="round" stroke-miterlimit="10" stroke-width="1"/>
    <path id="Stroke_27" data-name="Stroke 27" d="M33.335,0H0" transform="translate(45.943 53.348)" fill="none" stroke="#231f20" stroke-miterlimit="10" stroke-width="1"/>
    <path id="Stroke_30" data-name="Stroke 30" d="M33.335,0H0" transform="translate(45.943 53.348)" fill="none" stroke="#231f20" stroke-miterlimit="10" stroke-width="1"/>
    <path id="Stroke_33" data-name="Stroke 33" d="M0,7H51V0H0Z" transform="translate(38 84)" fill="#ededc2" stroke="#231f20" stroke-miterlimit="10" stroke-width="1"/>
    <path id="Stroke_35" data-name="Stroke 35" d="M0,4.983C0,.73,3.5,0,7.817,0H26.178C30.5,0,34,.73,34,4.983V6H0Z" transform="translate(46 34)" fill="#f7f6da" stroke="#231f20" stroke-miterlimit="10" stroke-width="1"/>
    <path id="Stroke_37" data-name="Stroke 37" d="M7,0a18.089,18.089,0,0,1,4.467,2.409c3.081,2.386,2.492,4.5,2.492,4.5a3.01,3.01,0,0,1-2.476,3.065,2.367,2.367,0,0,1-.363.026H2.874A2.97,2.97,0,0,1,.046,6.909S-1.008,3.152,7,0Z" transform="translate(35 38)" fill="#f7f6da" stroke="#231f20" stroke-miterlimit="10" stroke-width="1"/>
    <path id="Stroke_39" data-name="Stroke 39" d="M0,7.988A2.907,2.907,0,0,0,2.424,5.047S3.014,3.017,0,.727V0H34V.745c-2.984,2.284-2.412,4.3-2.412,4.3A2.9,2.9,0,0,0,34,7.988V13H0V7.988Z" transform="translate(46 40)" fill="#ededc2" stroke="#231f20" stroke-miterlimit="10" stroke-width="1"/>
    <path id="Stroke_41" data-name="Stroke 41" d="M0,31H34V0H0Z" transform="translate(46 53)" fill="none" stroke="#231f20" stroke-miterlimit="10" stroke-width="1"/>
    <g id="Rectangle" transform="translate(46 53)" fill="#f7f6da" stroke="#000" stroke-miterlimit="10" stroke-width="1">
      <rect width="12" height="31" stroke="none"/>
      <rect x="0.5" y="0.5" width="11" height="30" fill="none"/>
    </g>
    <g id="Rectangle_Copy" data-name="Rectangle Copy" transform="translate(57 53)" fill="#f7f6da" stroke="#000" stroke-miterlimit="10" stroke-width="1">
      <rect width="12" height="31" stroke="none"/>
      <rect x="0.5" y="0.5" width="11" height="30" fill="none"/>
    </g>
    <g id="Rectangle_Copy_2" data-name="Rectangle Copy 2" transform="translate(68 53)" fill="#f7f6da" stroke="#000" stroke-miterlimit="10" stroke-width="1">
      <rect width="12" height="31" stroke="none"/>
      <rect x="0.5" y="0.5" width="11" height="30" fill="none"/>
    </g>
    <path id="Stroke_43" data-name="Stroke 43" d="M0,6H34V0H0Z" transform="translate(46 78)" fill="#ededc2" stroke="#231f20" stroke-miterlimit="10" stroke-width="1"/>
    <path id="Stroke_51" data-name="Stroke 51" d="M0,0V4.71" transform="translate(56.063 44.707)" fill="none" stroke="#231f20" stroke-miterlimit="10" stroke-width="1"/>
    <path id="Stroke_54" data-name="Stroke 54" d="M0,0V4.71" transform="translate(62.899 44.707)" fill="none" stroke="#231f20" stroke-miterlimit="10" stroke-width="1"/>
    <path id="Stroke_57" data-name="Stroke 57" d="M0,0V4.71" transform="translate(70.739 44.707)" fill="none" stroke="#231f20" stroke-miterlimit="10" stroke-width="1"/>
    <path id="Stroke_60" data-name="Stroke 60" d="M26.516,0H0" transform="translate(89 61)" fill="none" stroke="#231f20" stroke-miterlimit="10" stroke-width="1"/>
    <path id="Stroke_63" data-name="Stroke 63" d="M0,8H26V0H0Z" transform="translate(89 53)" fill="none" stroke="#231f20" stroke-miterlimit="10" stroke-width="1"/>
    <path id="Stroke_65" data-name="Stroke 65" d="M0,23H26V0H0Z" transform="translate(89 61)" fill="#f7f6da" stroke="#231f20" stroke-miterlimit="10" stroke-width="1"/>
    <path id="Stroke_67" data-name="Stroke 67" d="M0,36H9V0H0Z" transform="translate(115 48)" fill="#ededc2" stroke="#231f20" stroke-miterlimit="10" stroke-width="1"/>
    <path id="Stroke_69" data-name="Stroke 69" d="M7,0C-1,3.152.045,6.909.045,6.909A2.966,2.966,0,0,0,2.881,10h8.242a2.97,2.97,0,0,0,2.832-3.091S15,3.152,7,0Z" transform="translate(113 38)" fill="#f7f6da" stroke="#231f20" stroke-miterlimit="10" stroke-width="1"/>
    <path id="Stroke_71" data-name="Stroke 71" d="M0,3.656V0" transform="translate(119.68 34.246)" fill="none" stroke="#231f20" stroke-linecap="round" stroke-linejoin="round" stroke-miterlimit="10" stroke-width="1"/>
    <path id="Stroke_74" data-name="Stroke 74" d="M1.071,0H3.924A2.694,2.694,0,0,1,5,2.11V5H0V2.11A2.7,2.7,0,0,1,1.071,0Z" transform="translate(105 67)" fill="#ededc2" stroke="#231f20" stroke-miterlimit="10" stroke-width="1"/>
    <path id="Stroke_76" data-name="Stroke 76" d="M0,6H5V0H0Z" transform="translate(105 78)" fill="#ededc2" stroke="#231f20" stroke-miterlimit="10" stroke-width="1"/>
    <path id="Stroke_78" data-name="Stroke 78" d="M1.071,0H3.927A2.683,2.683,0,0,1,5,2.11V5H0V2.11A2.685,2.685,0,0,1,1.071,0Z" transform="translate(94 67)" fill="#ededc2" stroke="#231f20" stroke-miterlimit="10" stroke-width="1"/>
    <path id="Stroke_80" data-name="Stroke 80" d="M0,6H5V0H0Z" transform="translate(94 78)" fill="#ededc2" stroke="#231f20" stroke-miterlimit="10" stroke-width="1"/>
    <path id="Stroke_82" data-name="Stroke 82" d="M0,8H9V0H0Z" transform="translate(89 53)" fill="#fbffe9" stroke="#231f20" stroke-miterlimit="10" stroke-width="1"/>
    <path id="Stroke_84" data-name="Stroke 84" d="M0,8H8V0H0Z" transform="translate(98 53)" fill="#fbffe9" stroke="#231f20" stroke-miterlimit="10" stroke-width="1"/>
    <path id="Stroke_86" data-name="Stroke 86" d="M0,8H9V0H0Z" transform="translate(106 53)" fill="#fbffe9" stroke="#231f20" stroke-miterlimit="10" stroke-width="1"/>
    <path id="Stroke_88" data-name="Stroke 88" d="M0,0H26.516" transform="translate(11 61)" fill="none" stroke="#231f20" stroke-miterlimit="10" stroke-width="1"/>
    <path id="Stroke_91" data-name="Stroke 91" d="M0,23H26V0H0Z" transform="translate(11 61)" fill="#f7f6da" stroke="#231f20" stroke-miterlimit="10" stroke-width="1"/>
    <path id="Stroke_93" data-name="Stroke 93" d="M0,8H26V0H0Z" transform="translate(11 53)" fill="none" stroke="#231f20" stroke-miterlimit="10" stroke-width="1"/>
    <path id="Stroke_95" data-name="Stroke 95" d="M0,36H9V0H0Z" transform="translate(2 48)" fill="#ededc2" stroke="#231f20" stroke-miterlimit="10" stroke-width="1"/>
    <path id="Stroke_97" data-name="Stroke 97" d="M7,0c8,3.152,6.953,6.909,6.953,6.909A2.965,2.965,0,0,1,11.12,10H2.876A2.972,2.972,0,0,1,.045,6.909S-1,3.152,7,0Z" transform="translate(0 38)" fill="#f7f6da" stroke="#231f20" stroke-miterlimit="10" stroke-width="1"/>
    <path id="Stroke_99" data-name="Stroke 99" d="M0,3.656V0" transform="translate(6.325 34.246)" fill="none" stroke="#231f20" stroke-linecap="round" stroke-linejoin="round" stroke-miterlimit="10" stroke-width="1"/>
    <path id="Stroke_102" data-name="Stroke 102" d="M3.932,0H1.073A2.683,2.683,0,0,0,0,2.11V5H5V2.11A2.688,2.688,0,0,0,3.932,0Z" transform="translate(16 67)" fill="#ededc2" stroke="#231f20" stroke-miterlimit="10" stroke-width="1"/>
    <path id="Stroke_104" data-name="Stroke 104" d="M0,6H5V0H0Z" transform="translate(16 78)" fill="#ededc2" stroke="#231f20" stroke-miterlimit="10" stroke-width="1"/>
    <path id="Stroke_106" data-name="Stroke 106" d="M3.929,0H1.073A2.683,2.683,0,0,0,0,2.11V5H5V2.11A2.685,2.685,0,0,0,3.929,0Z" transform="translate(27 67)" fill="#ededc2" stroke="#231f20" stroke-miterlimit="10" stroke-width="1"/>
    <path id="Stroke_108" data-name="Stroke 108" d="M0,6H5V0H0Z" transform="translate(27 78)" fill="#ededc2" stroke="#231f20" stroke-miterlimit="10" stroke-width="1"/>
    <path id="Stroke_110" data-name="Stroke 110" d="M0,8H9V0H0Z" transform="translate(11 53)" fill="#fbffe9" stroke="#231f20" stroke-miterlimit="10" stroke-width="1"/>
    <path id="Stroke_112" data-name="Stroke 112" d="M0,8H8V0H0Z" transform="translate(20 53)" fill="#fbffe9" stroke="#231f20" stroke-miterlimit="10" stroke-width="1"/>
    <path id="Stroke_114" data-name="Stroke 114" d="M0,8H9V0H0Z" transform="translate(28 53)" fill="#fbffe9" stroke="#231f20" stroke-miterlimit="10" stroke-width="1"/>
    <text id="Bangalore" transform="translate(33 118)" font-size="13" font-family="SegoeUI, Segoe UI"><tspan x="0" y="0">Bangalore</tspan></text>
  </g>
</svg>
