<svg xmlns="http://www.w3.org/2000/svg" width="121.368" height="126.132" viewBox="0 0 121.368 126.132">
  <g id="Chennai" transform="translate(0.5 0.132)">
    <path id="Fill_1" data-name="Fill 1" d="M0,32.962H16.982V0H0Z" transform="translate(0 60.038)" fill="#fff"/>
    <path id="Stroke_2" data-name="Stroke 2" d="M0,31.785H16.982V0H0Z" transform="translate(0 60.038)" fill="#ff8c78" stroke="#231f20" stroke-linecap="round" stroke-linejoin="round" stroke-miterlimit="10" stroke-width="1"/>
    <path id="Fill_4" data-name="Fill 4" d="M5.221,0,0,14.127H16.982L11.765,0Z" transform="translate(0 45.911)" fill="#ecefd6"/>
    <path id="Stroke_5" data-name="Stroke 5" d="M16.982,14.127H0L5.221,0h6.544Z" transform="translate(0 45.911)" fill="none" stroke="#231f20" stroke-linecap="round" stroke-linejoin="round" stroke-miterlimit="10" stroke-width="1"/>
    <path id="Fill_7" data-name="Fill 7" d="M0,4.709H6.368V1.177L6.182,0H0Z" transform="translate(5.307 41.203)" fill="#ecefd6"/>
    <path id="Stroke_8" data-name="Stroke 8" d="M0,4.709H6.368V0H0Z" transform="translate(5.307 41.203)" fill="none" stroke="#231f20" stroke-linecap="round" stroke-linejoin="round" stroke-miterlimit="10" stroke-width="1"/>
    <path id="Fill_9" data-name="Fill 9" d="M0,17.658H16.982V0H0Z" transform="translate(0 60.038)" fill="#ff8c78"/>
    <path id="Stroke_10" data-name="Stroke 10" d="M0,17.658H16.982V0H0Z" transform="translate(0 60.038)" fill="none" stroke="#231f20" stroke-linecap="round" stroke-linejoin="round" stroke-miterlimit="10" stroke-width="1"/>
    <path id="Fill_15" data-name="Fill 15" d="M0,9.792V2.476C0,1.107,1.474,0,3.3,0S6.6,1.107,6.6,2.476V9.792Z" transform="translate(5.16 82.227)" fill="#be664d"/>
    <path id="Stroke_16" data-name="Stroke 16" d="M0,9.6V2.426C0,1.084,1.474,0,3.3,0S6.6,1.084,6.6,2.426V9.6Z" transform="translate(5.16 82.227)" fill="none" stroke="#231f20" stroke-linecap="round" stroke-linejoin="round" stroke-miterlimit="10" stroke-width="1"/>
    <path id="Fill_17" data-name="Fill 17" d="M0,13.379V2.607C0,1.165,1.474,0,3.3,0S6.6,1.165,6.6,2.607V13.379Z" transform="translate(5.16 64.318)" fill="#be664d"/>
    <path id="Stroke_18" data-name="Stroke 18" d="M0,13.379V2.607C0,1.165,1.474,0,3.3,0S6.6,1.165,6.6,2.607V13.379Z" transform="translate(5.16 64.318)" fill="none" stroke="#231f20" stroke-linecap="round" stroke-linejoin="round" stroke-miterlimit="10" stroke-width="1"/>
    <path id="Stroke_20" data-name="Stroke 20" d="M0,60.548H17.212V0H0Z" transform="translate(51.537 31.275)" fill="#ff8c78" stroke="#231f20" stroke-linecap="round" stroke-linejoin="round" stroke-miterlimit="10" stroke-width="1"/>
    <path id="Fill_21" data-name="Fill 21" d="M17.212,16.891H0L5.285,0h6.636Z" transform="translate(51.537 14.384)" fill="#ecefd6"/>
    <path id="Stroke_22" data-name="Stroke 22" d="M17.212,16.891H0L5.285,0h6.636Z" transform="translate(51.537 14.384)" fill="none" stroke="#231f20" stroke-linecap="round" stroke-linejoin="round" stroke-miterlimit="10" stroke-width="1"/>
    <path id="Fill_23" data-name="Fill 23" d="M0,5.225H6.663V0H0Z" transform="translate(56.81 9.159)" fill="#ecefd6"/>
    <path id="Stroke_24" data-name="Stroke 24" d="M0,5.225H6.663V0H0Z" transform="translate(56.81 9.159)" fill="none" stroke="#231f20" stroke-linecap="round" stroke-linejoin="round" stroke-miterlimit="10" stroke-width="1"/>
    <path id="Fill_25" data-name="Fill 25" d="M0,8.79V0" transform="translate(60.141 0.368)" fill="#fff"/>
    <path id="Stroke_26" data-name="Stroke 26" d="M0,8.79V0" transform="translate(60.141 0.368)" fill="none" stroke="#231f20" stroke-linecap="round" stroke-linejoin="round" stroke-miterlimit="10" stroke-width="1"/>
    <path id="Stroke_29" data-name="Stroke 29" d="M0,9.233H5.9V0H0Z" transform="translate(56.81 82.405)" fill="#be664d" stroke="#231f20" stroke-miterlimit="10" stroke-width="1"/>
    <path id="Fill_30" data-name="Fill 30" d="M6.583,9.789V2.478C6.583,1.1,5.112,0,3.289,0S0,1.1,0,2.478V9.789Z" transform="translate(56.81 49.345)" fill="#be664d"/>
    <path id="Stroke_31" data-name="Stroke 31" d="M6.583,9.789V2.478C6.583,1.1,5.112,0,3.289,0S0,1.1,0,2.478V9.789Z" transform="translate(56.81 49.345)" fill="none" stroke="#231f20" stroke-linecap="round" stroke-linejoin="round" stroke-miterlimit="10" stroke-width="1"/>
    <path id="Fill_32" data-name="Fill 32" d="M0,17.909H17.212V0H0Z" transform="translate(51.494 59.133)" fill="#ff8c78"/>
    <path id="Stroke_33" data-name="Stroke 33" d="M0,17.909H17.212V0H0Z" transform="translate(51.494 59.133)" fill="none" stroke="#231f20" stroke-linecap="round" stroke-linejoin="round" stroke-miterlimit="10" stroke-width="1"/>
    <path id="Fill_34" data-name="Fill 34" d="M6.583,12.72V2.474C6.583,1.1,5.112,0,3.289,0S0,1.1,0,2.474V12.72Z" transform="translate(56.81 64.323)" fill="#be664d"/>
    <path id="Stroke_35" data-name="Stroke 35" d="M6.583,12.72V2.474C6.583,1.1,5.112,0,3.289,0S0,1.1,0,2.474V12.72Z" transform="translate(56.81 64.323)" fill="none" stroke="#231f20" stroke-linecap="round" stroke-linejoin="round" stroke-miterlimit="10" stroke-width="1"/>
    <path id="Fill_36" data-name="Fill 36" d="M6.037,3.316A3.175,3.175,0,0,1,3.023,6.632,3.178,3.178,0,0,1,0,3.316,3.177,3.177,0,0,1,3.023,0,3.173,3.173,0,0,1,6.037,3.316" transform="translate(57.084 37.301)" fill="#be664d"/>
    <path id="Stroke_37" data-name="Stroke 37" d="M6.037,3.316A3.175,3.175,0,0,1,3.023,6.632,3.178,3.178,0,0,1,0,3.316,3.177,3.177,0,0,1,3.023,0,3.173,3.173,0,0,1,6.037,3.316Z" transform="translate(57.084 37.301)" fill="none" stroke="#231f20" stroke-linecap="round" stroke-linejoin="round" stroke-miterlimit="10" stroke-width="1"/>
    <path id="Fill_38" data-name="Fill 38" d="M0,32.884H17.255V0H0Z" transform="translate(103.113 59.135)" fill="#fff"/>
    <path id="Fill_40" data-name="Fill 40" d="M0,14.1H17.255L11.954,0H5.3Z" transform="translate(103.113 45.033)" fill="#ecefd6"/>
    <path id="Stroke_41" data-name="Stroke 41" d="M0,14.1H17.255L11.954,0H5.3Z" transform="translate(103.113 45.033)" fill="none" stroke="#231f20" stroke-linecap="round" stroke-linejoin="round" stroke-miterlimit="10" stroke-width="1"/>
    <path id="Fill_42" data-name="Fill 42" d="M0,5.225H6.709V0H0Z" transform="translate(108.386 39.808)" fill="#ecefd6"/>
    <path id="Stroke_43" data-name="Stroke 43" d="M0,5.225H6.709V0H0Z" transform="translate(108.386 39.808)" fill="none" stroke="#231f20" stroke-linecap="round" stroke-linejoin="round" stroke-miterlimit="10" stroke-width="1"/>
    <path id="Fill_44" data-name="Fill 44" d="M0,17.907H17.255V0H0Z" transform="translate(103.113 59.135)" fill="#ff8c78"/>
    <path id="Stroke_45" data-name="Stroke 45" d="M0,17.907H17.255V0H0Z" transform="translate(103.113 59.135)" fill="none" stroke="#231f20" stroke-linecap="round" stroke-linejoin="round" stroke-miterlimit="10" stroke-width="1"/>
    <path id="Stroke_47" data-name="Stroke 47" d="M0,14.78H17.255V0H0Z" transform="translate(103.113 77.043)" fill="#ff8c78" stroke="#231f20" stroke-linecap="round" stroke-linejoin="round" stroke-miterlimit="10" stroke-width="1"/>
    <path id="Stroke_49" data-name="Stroke 49" d="M6.6,9.6V2.426C6.6,1.084,5.127,0,3.3,0S0,1.084,0,2.426V9.6H6.6Z" transform="translate(108.438 82.227)" fill="#be664d" stroke="#231f20" stroke-linecap="round" stroke-linejoin="round" stroke-miterlimit="10" stroke-width="1"/>
    <path id="Fill_50" data-name="Fill 50" d="M6.6,12.726V2.48C6.6,1.109,5.127,0,3.3,0S0,1.109,0,2.48V12.726Z" transform="translate(108.438 64.318)" fill="#be664d"/>
    <path id="Stroke_51" data-name="Stroke 51" d="M6.6,12.726V2.48C6.6,1.109,5.127,0,3.3,0S0,1.109,0,2.48V12.726Z" transform="translate(108.438 64.318)" fill="none" stroke="#231f20" stroke-linecap="round" stroke-linejoin="round" stroke-miterlimit="10" stroke-width="1"/>
    <g id="Stroke_53" data-name="Stroke 53">
      <path id="Stroke_53-2" data-name="Stroke 53" d="M0,32.687H33.965V0H0Z" transform="translate(69.148 59.135)" fill="#ff8c78" stroke="#231f20" stroke-linecap="round" stroke-linejoin="round" stroke-miterlimit="10" stroke-width="1"/>
      <path id="Stroke_53-3" data-name="Stroke 53" d="M0,32.687H33.965V0H0Z" transform="translate(69.148 59.135)" fill="none"/>
    </g>
    <path id="Fill_54" data-name="Fill 54" d="M0,7.489H34.4V0H0Z" transform="translate(68.708 59.137)" fill="#ecefd6"/>
    <path id="Stroke_55" data-name="Stroke 55" d="M0,7.489H34.4V0H0Z" transform="translate(68.708 59.137)" fill="none" stroke="#231f20" stroke-linecap="round" stroke-linejoin="round" stroke-miterlimit="10" stroke-width="1"/>
    <path id="Fill_58" data-name="Fill 58" d="M0,12.027H34.4V0H0Z" transform="translate(68.708 66.626)" fill="#ff8c78"/>
    <path id="Stroke_59" data-name="Stroke 59" d="M0,12.027H34.4V0H0Z" transform="translate(68.708 66.626)" fill="none" stroke="#231f20" stroke-linecap="round" stroke-linejoin="round" stroke-miterlimit="10" stroke-width="1"/>
    <path id="Fill_60" data-name="Fill 60" d="M7.386,1.177h0Z" transform="translate(75.134 84.277)" fill="#be664d"/>
    <path id="Stroke_61" data-name="Stroke 61" d="M0,7.063H7.386V0H0Z" transform="translate(75.36 84.759)" fill="#be664d" stroke="#231f20" stroke-miterlimit="10" stroke-width="1"/>
    <path id="Fill_62" data-name="Fill 62" d="M7.3,8.029V2.2C7.3.985,5.667,0,3.649,0S0,.985,0,2.2V8.029Z" transform="translate(75.176 70.624)" fill="#be664d"/>
    <path id="Stroke_63" data-name="Stroke 63" d="M7.3,8.029V2.2C7.3.985,5.667,0,3.649,0S0,.985,0,2.2V8.029Z" transform="translate(75.176 70.624)" fill="none" stroke="#231f20" stroke-linecap="round" stroke-linejoin="round" stroke-miterlimit="10" stroke-width="1"/>
    <path id="Fill_64" data-name="Fill 64" d="M7.386,1.177h0Z" transform="translate(89.232 84.275)" fill="#be664d"/>
    <path id="Stroke_65" data-name="Stroke 65" d="M0,7.063H7.386V0H0Z" transform="translate(89.158 84.759)" fill="#be664d" stroke="#231f20" stroke-miterlimit="10" stroke-width="1"/>
    <path id="Fill_66" data-name="Fill 66" d="M7.305,8.029V2.2C7.305.985,5.667,0,3.653,0S0,.985,0,2.2V8.029Z" transform="translate(89.269 70.622)" fill="#be664d"/>
    <path id="Stroke_67" data-name="Stroke 67" d="M7.305,8.029V2.2C7.305.985,5.667,0,3.653,0S0,.985,0,2.2V8.029Z" transform="translate(89.269 70.622)" fill="none" stroke="#231f20" stroke-linecap="round" stroke-linejoin="round" stroke-miterlimit="10" stroke-width="1"/>
    <g id="Fill_68" data-name="Fill 68">
      <path id="Fill_68-2" data-name="Fill 68" d="M0,32.884H34.408V0H0Z" transform="translate(17.086 59.135)" fill="#fff"/>
      <path id="Fill_68-3" data-name="Fill 68" d="M0,32.884H34.408V0H0Z" transform="translate(17.086 59.135)" fill="#ff8c78"/>
    </g>
    <path id="Stroke_69" data-name="Stroke 69" d="M0,32.687H34.4V0H0Z" transform="translate(17.089 59.135)" fill="none" stroke="#231f20" stroke-linecap="round" stroke-linejoin="round" stroke-miterlimit="10" stroke-width="1"/>
    <path id="Fill_70" data-name="Fill 70" d="M0,7.489H34.408V0H0Z" transform="translate(17.086 59.137)" fill="#ecefd6"/>
    <path id="Stroke_71" data-name="Stroke 71" d="M0,7.489H34.408V0H0Z" transform="translate(17.086 59.137)" fill="none" stroke="#231f20" stroke-linecap="round" stroke-linejoin="round" stroke-miterlimit="10" stroke-width="1"/>
    <path id="Fill_74" data-name="Fill 74" d="M0,12.027H34.408V0H0Z" transform="translate(17.086 66.626)" fill="#ff8c78"/>
    <path id="Stroke_75" data-name="Stroke 75" d="M0,12.027H34.408V0H0Z" transform="translate(17.086 66.626)" fill="none" stroke="#231f20" stroke-linecap="round" stroke-linejoin="round" stroke-miterlimit="10" stroke-width="1"/>
    <path id="Stroke_77" data-name="Stroke 77" d="M0,6.565H7.386V0H0Z" transform="translate(38.029 84.759)" fill="#be664d" stroke="#231f20" stroke-miterlimit="10" stroke-width="1"/>
    <path id="Fill_78" data-name="Fill 78" d="M0,8.029V2.2C0,.985,1.634,0,3.653,0S7.309.985,7.309,2.2V8.029Z" transform="translate(37.721 70.624)" fill="#be664d"/>
    <path id="Stroke_79" data-name="Stroke 79" d="M0,8.029V2.2C0,.985,1.634,0,3.653,0S7.309.985,7.309,2.2V8.029Z" transform="translate(37.721 70.624)" fill="none" stroke="#231f20" stroke-linecap="round" stroke-linejoin="round" stroke-miterlimit="10" stroke-width="1"/>
    <path id="Stroke_81" data-name="Stroke 81" d="M0,6.563H7.389V0H0Z" transform="translate(23.54 84.759)" fill="#be664d" stroke="#231f20" stroke-miterlimit="10" stroke-width="1"/>
    <path id="Fill_82" data-name="Fill 82" d="M0,8.029V2.2C0,.985,1.634,0,3.649,0S7.3.985,7.3,2.2V8.029Z" transform="translate(23.627 70.622)" fill="#be664d"/>
    <path id="Stroke_83" data-name="Stroke 83" d="M0,8.029V2.2C0,.985,1.634,0,3.649,0S7.3.985,7.3,2.2V8.029Z" transform="translate(23.627 70.622)" fill="none" stroke="#231f20" stroke-linecap="round" stroke-linejoin="round" stroke-miterlimit="10" stroke-width="1"/>
    <text id="Chennai-2" data-name="Chennai" transform="translate(37 123)" font-size="13" font-family="SegoeUI, Segoe UI"><tspan x="0" y="0">Chennai</tspan></text>
  </g>
</svg>
