<svg xmlns="http://www.w3.org/2000/svg" width="65" height="121.5" viewBox="0 0 65 121.5">
  <g id="Delhi" transform="translate(0.5 0.5)">
    <path id="Stroke_3" data-name="Stroke 3" d="M40.324,20h0A10.159,10.159,0,0,0,30,10.024,10.154,10.154,0,0,0,19.677,20H0V0H60V20Z" transform="translate(2 29)" fill="#efd7ab" stroke="#231f20" stroke-linecap="round" stroke-linejoin="round" stroke-miterlimit="10" stroke-width="1"/>
    <path id="Fill_5" data-name="Fill 5" d="M42.268,8.5H49V17H0V8.5H6.735V3.349C10.26,3.276,16.768,2.9,19.5,1.548c.372-.185.709-.414,1.051-.627l.028-.015A7.562,7.562,0,0,1,24.5,0a7.58,7.58,0,0,1,3.918.906l.027.015c.341.213.679.442,1.051.627,2.732,1.356,9.241,1.728,12.768,1.8V8.5Z" transform="translate(8)" fill="#efd7ab"/>
    <path id="Stroke_7" data-name="Stroke 7" d="M42.268,8.5H49V17H0V8.5H6.735V3.349C10.26,3.276,16.768,2.9,19.5,1.548c.372-.185.709-.414,1.051-.627l.028-.015A7.562,7.562,0,0,1,24.5,0a7.58,7.58,0,0,1,3.918.906l.027.015c.341.213.679.442,1.051.627,2.732,1.356,9.241,1.728,12.768,1.8V8.5Z" transform="translate(8)" fill="none" stroke="#231f20" stroke-linecap="round" stroke-linejoin="round" stroke-miterlimit="10" stroke-width="1"/>
    <path id="Fill_9" data-name="Fill 9" d="M6,3A3,3,0,1,1,3,0,3,3,0,0,1,6,3" transform="translate(11 35)" fill="#eac591"/>
    <path id="Stroke_11" data-name="Stroke 11" d="M6,3A3,3,0,1,1,3,0,3,3,0,0,1,6,3Z" transform="translate(11 35)" fill="none" stroke="#231f20" stroke-linecap="round" stroke-linejoin="round" stroke-miterlimit="10" stroke-width="1"/>
    <path id="Fill_13" data-name="Fill 13" d="M6,3A3,3,0,1,1,3,0,3,3,0,0,1,6,3" transform="translate(46 35)" fill="#eac591"/>
    <path id="Stroke_15" data-name="Stroke 15" d="M6,3A3,3,0,1,1,3,0,3,3,0,0,1,6,3Z" transform="translate(46 35)" fill="none" stroke="#231f20" stroke-linecap="round" stroke-linejoin="round" stroke-miterlimit="10" stroke-width="1"/>
    <path id="Fill_17" data-name="Fill 17" d="M60,4.5A1.446,1.446,0,0,1,58.61,6H1.389A1.444,1.444,0,0,1,0,4.5v-3A1.447,1.447,0,0,1,1.389,0H58.61A1.448,1.448,0,0,1,60,1.5Z" transform="translate(2 17)" fill="#eac591"/>
    <path id="Stroke_19" data-name="Stroke 19" d="M60,4.5A1.446,1.446,0,0,1,58.61,6H1.389A1.444,1.444,0,0,1,0,4.5v-3A1.447,1.447,0,0,1,1.389,0H58.61A1.448,1.448,0,0,1,60,1.5Z" transform="translate(2 17)" fill="none" stroke="#231f20" stroke-linecap="round" stroke-linejoin="round" stroke-miterlimit="10" stroke-width="1"/>
    <path id="Fill_21" data-name="Fill 21" d="M64,5.474A1.453,1.453,0,0,1,62.625,7H1.379A1.457,1.457,0,0,1,0,5.474V1.526A1.46,1.46,0,0,1,1.379,0H62.625A1.456,1.456,0,0,1,64,1.526Z" transform="translate(0 22)" fill="#eac591"/>
    <path id="Stroke_23" data-name="Stroke 23" d="M64,5.474A1.453,1.453,0,0,1,62.625,7H1.379A1.457,1.457,0,0,1,0,5.474V1.526A1.46,1.46,0,0,1,1.379,0H62.625A1.456,1.456,0,0,1,64,1.526Z" transform="translate(0 22)" fill="none" stroke="#231f20" stroke-linecap="round" stroke-linejoin="round" stroke-miterlimit="10" stroke-width="1"/>
    <path id="Fill_25" data-name="Fill 25" d="M24,2.772A1.3,1.3,0,0,1,22.633,4H1.369A1.3,1.3,0,0,1,0,2.772V1.223A1.3,1.3,0,0,1,1.369,0H22.633A1.3,1.3,0,0,1,24,1.223Z" transform="translate(0 49)" fill="#eac591"/>
    <path id="Stroke_27" data-name="Stroke 27" d="M24,2.772A1.3,1.3,0,0,1,22.633,4H1.369A1.3,1.3,0,0,1,0,2.772V1.223A1.3,1.3,0,0,1,1.369,0H22.633A1.3,1.3,0,0,1,24,1.223Z" transform="translate(0 49)" fill="none" stroke="#231f20" stroke-linecap="round" stroke-linejoin="round" stroke-miterlimit="10" stroke-width="1"/>
    <path id="Fill_29" data-name="Fill 29" d="M24,2.772A1.3,1.3,0,0,1,22.634,4H1.362A1.3,1.3,0,0,1,0,2.772V1.223A1.3,1.3,0,0,1,1.362,0H22.634A1.3,1.3,0,0,1,24,1.223Z" transform="translate(40 49)" fill="#eac591"/>
    <path id="Stroke_31" data-name="Stroke 31" d="M24,2.772A1.3,1.3,0,0,1,22.634,4H1.362A1.3,1.3,0,0,1,0,2.772V1.223A1.3,1.3,0,0,1,1.362,0H22.634A1.3,1.3,0,0,1,24,1.223Z" transform="translate(40 49)" fill="none" stroke="#231f20" stroke-linecap="round" stroke-linejoin="round" stroke-miterlimit="10" stroke-width="1"/>
    <path id="Fill_33" data-name="Fill 33" d="M0,31H20V0H0Z" transform="translate(42 53)" fill="#efd7ab"/>
    <path id="Stroke_35" data-name="Stroke 35" d="M0,31H20V0H0Z" transform="translate(42 53)" fill="none" stroke="#231f20" stroke-linecap="round" stroke-linejoin="round" stroke-miterlimit="10" stroke-width="1"/>
    <path id="Fill_36" data-name="Fill 36" d="M0,31H20V0H0Z" transform="translate(2 53)" fill="#efd7ab"/>
    <path id="Stroke_37" data-name="Stroke 37" d="M0,31H20V0H0Z" transform="translate(2 53)" fill="none" stroke="#231f20" stroke-linecap="round" stroke-linejoin="round" stroke-miterlimit="10" stroke-width="1"/>
    <path id="Stroke_39" data-name="Stroke 39" d="M19.9,14.5h-.943a1.346,1.346,0,0,1-1.338-1.357v-1.71a1.568,1.568,0,0,1,1.338-1.585H20A9.878,9.878,0,0,0,9.972,0,9.834,9.834,0,0,0,0,9.852H.988a1.571,1.571,0,0,1,1.343,1.585v1.71A1.349,1.349,0,0,1,.988,14.5H0V45H19.9Z" transform="translate(22 39)" fill="#eac591" stroke="#231f20" stroke-linecap="round" stroke-linejoin="round" stroke-miterlimit="10" stroke-width="1"/>
    <path id="Fill_40" data-name="Fill 40" d="M0,0H59" transform="translate(2 83)" fill="#fff"/>
    <text id="Delhi-2" data-name="Delhi" transform="translate(17 118)" font-size="13" font-family="SegoeUI, Segoe UI"><tspan x="0" y="0">Delhi</tspan></text>
  </g>
</svg>
