<svg xmlns="http://www.w3.org/2000/svg" width="64" height="133.468" viewBox="0 0 64 133.468">
  <g id="Hyderabad" transform="translate(0 0.468)">
    <path id="Stroke_2" data-name="Stroke 2" d="M0,11.728H6.4V0H0Z" transform="translate(5.333 22.284)" fill="#eac591" stroke="#231f20" stroke-miterlimit="10" stroke-width="1"/>
    <path id="Stroke_4" data-name="Stroke 4" d="M0,5.864H6.4V0H0Z" transform="translate(5.333 10.556)" fill="#eac591" stroke="#231f20" stroke-miterlimit="10" stroke-width="1"/>
    <path id="Stroke_6" data-name="Stroke 6" d="M0,12.9H10.667V0H0Z" transform="translate(3.2 38.704)" fill="#eac591" stroke="#231f20" stroke-miterlimit="10" stroke-width="1"/>
    <path id="Stroke_8" data-name="Stroke 8" d="M0,33.351H10.364V0H0Z" transform="translate(3.098 60.951)" fill="#eac591" stroke="#231f20" stroke-miterlimit="10" stroke-width="1"/>
    <path id="Stroke_11" data-name="Stroke 11" d="M4.172,0C8.946,2.22,8.32,4.866,8.32,4.866a1.978,1.978,0,0,1-1.69,2.171H1.716A1.978,1.978,0,0,1,.027,4.866S-.6,2.22,4.172,0Z" transform="translate(4.267 3.519)" fill="#efd7ab" stroke="#231f20" stroke-miterlimit="10" stroke-width="1"/>
    <path id="Stroke_13" data-name="Stroke 13" d="M0,2.9V0" transform="translate(8.278 0.032)" fill="none" stroke="#231f20" stroke-linecap="round" stroke-linejoin="round" stroke-miterlimit="10" stroke-width="1"/>
    <path id="Stroke_16" data-name="Stroke 16" d="M9.964,5.763a1.346,1.346,0,0,1-1.289,1.4H1.285A1.346,1.346,0,0,1,0,5.763V1.4A1.349,1.349,0,0,1,1.285,0H8.675A1.349,1.349,0,0,1,9.964,1.4Z" transform="translate(3.298 16.34)" fill="#efd7ab" stroke="#231f20" stroke-linecap="round" stroke-linejoin="round" stroke-miterlimit="10" stroke-width="1"/>
    <path id="Stroke_18" data-name="Stroke 18" d="M13.67,6.151a1.344,1.344,0,0,1-1.284,1.4H1.289A1.351,1.351,0,0,1,0,6.151V1.4A1.348,1.348,0,0,1,1.289,0h11.1A1.341,1.341,0,0,1,13.67,1.4Z" transform="translate(1.442 32.724)" fill="#efd7ab" stroke="#231f20" stroke-miterlimit="10" stroke-width="1"/>
    <path id="Stroke_20" data-name="Stroke 20" d="M15.278,7.666a1.349,1.349,0,0,1-1.288,1.4H1.286A1.35,1.35,0,0,1,0,7.666V1.4A1.352,1.352,0,0,1,1.286,0h12.7a1.35,1.35,0,0,1,1.288,1.4Z" transform="translate(0.639 51.883)" fill="#efd7ab" stroke="#231f20" stroke-linecap="round" stroke-linejoin="round" stroke-miterlimit="10" stroke-width="1"/>
    <path id="Stroke_25" data-name="Stroke 25" d="M0,4.876H37.106V0H0Z" transform="translate(13.462 40.279)" fill="none" stroke="#231f20" stroke-miterlimit="10" stroke-width="1"/>
    <path id="Stroke_27" data-name="Stroke 27" d="M0,4.876H6.06V0H0Z" transform="translate(13.462 40.279)" fill="#eac591" stroke="#231f20" stroke-miterlimit="10" stroke-width="1"/>
    <path id="Stroke_29" data-name="Stroke 29" d="M0,4.876H6.051V0H0Z" transform="translate(19.521 40.279)" fill="#eac591" stroke="#231f20" stroke-miterlimit="10" stroke-width="1"/>
    <path id="Stroke_31" data-name="Stroke 31" d="M0,4.876H6.429V0H0Z" transform="translate(25.572 40.279)" fill="#eac591" stroke="#231f20" stroke-miterlimit="10" stroke-width="1"/>
    <path id="Stroke_33" data-name="Stroke 33" d="M0,4.876H6.435V0H0Z" transform="translate(32.001 40.279)" fill="#eac591" stroke="#231f20" stroke-miterlimit="10" stroke-width="1"/>
    <path id="Stroke_35" data-name="Stroke 35" d="M0,4.876H6.079V0H0Z" transform="translate(38.436 40.279)" fill="#eac591" stroke="#231f20" stroke-miterlimit="10" stroke-width="1"/>
    <path id="Stroke_37" data-name="Stroke 37" d="M0,4.876H6.053V0H0Z" transform="translate(44.515 40.279)" fill="#eac591" stroke="#231f20" stroke-miterlimit="10" stroke-width="1"/>
    <path id="Stroke_41" data-name="Stroke 41" d="M7.058,9.833V5.022S7.254,2.178,3.531,0C-.19,2.178,0,5.022,0,5.022v4.81Z" transform="translate(22 50)" fill="#eac591" stroke="#231f20" stroke-miterlimit="10" stroke-width="1"/>
    <path id="Stroke_41_Copy_2" data-name="Stroke 41 Copy 2" d="M6.058,9.833V5.022S6.226,2.178,3.031,0C-.163,2.178,0,5.022,0,5.022v4.81Z" transform="translate(29 50)" fill="#eac591" stroke="#231f20" stroke-miterlimit="10" stroke-width="1"/>
    <path id="Stroke_41_Copy" data-name="Stroke 41 Copy" d="M6.4,9.833V5.022S6.576,2.178,3.2,0C-.173,2.178,0,5.022,0,5.022v4.81Z" transform="translate(16 50)" fill="#eac591" stroke="#231f20" stroke-miterlimit="10" stroke-width="1"/>
    <path id="Stroke_45" data-name="Stroke 45" d="M6.443,9.833V5.022S6.622,2.178,3.223,0C-.176,2.178,0,5.022,0,5.022v4.81Z" transform="translate(35.214 49.652)" fill="#eac591" stroke="#231f20" stroke-miterlimit="10" stroke-width="1"/>
    <path id="Stroke_47" data-name="Stroke 47" d="M6.444,9.833V5.022S6.623,2.178,3.225,0C-.178,2.178,0,5.022,0,5.022v4.81Z" transform="translate(41.645 49.652)" fill="#eac591" stroke="#231f20" stroke-miterlimit="10" stroke-width="1"/>
    <path id="Stroke_49" data-name="Stroke 49" d="M2.456,9.286V8.131a1.35,1.35,0,0,0-1.288-1.4H0V0H37.106V6.727H35.949a1.351,1.351,0,0,0-1.286,1.4V9.518h-.035s.178-2.843-3.219-5.022c-3.4,2.179-3.223,5.022-3.223,5.022h.009s.179-2.843-3.218-5.022c-3.4,2.179-3.223,5.022-3.223,5.022h.008s.18-2.843-3.217-5.022c-3.4,2.179-3.22,5.022-3.22,5.022h.006s.178-2.843-3.22-5.022c-3.4,2.179-3.224,5.022-3.224,5.022h.009S9.076,6.675,5.681,4.5c-3.4,2.179-3.223,5.022-3.223,5.022Z" transform="translate(13.461 45.155)" fill="#efd7ab" stroke="#231f20" stroke-linecap="round" stroke-linejoin="round" stroke-miterlimit="10" stroke-width="1"/>
    <path id="Stroke_51" data-name="Stroke 51" d="M0,9.219H5.984V0H0Z" transform="translate(52.771 23.504)" fill="#eac591" stroke="#231f20" stroke-miterlimit="10" stroke-width="1"/>
    <path id="Stroke_53" data-name="Stroke 53" d="M0,6.144H5.984V0H0Z" transform="translate(52.771 10.194)" fill="#eac591" stroke="#231f20" stroke-miterlimit="10" stroke-width="1"/>
    <path id="Stroke_55" data-name="Stroke 55" d="M0,11.6H10.363V0H0Z" transform="translate(50.582 40.28)" fill="#eac591" stroke="#231f20" stroke-miterlimit="10" stroke-width="1"/>
    <path id="Stroke_57" data-name="Stroke 57" d="M0,33.351H10.363V0H0Z" transform="translate(50.582 60.951)" fill="#eac591" stroke="#231f20" stroke-miterlimit="10" stroke-width="1"/>
    <path id="Stroke_59" data-name="Stroke 59" d="M4.173,0C8.946,2.291,8.322,5.021,8.322,5.021c0,1.236-.755,2.241-1.691,2.241H1.715c-.929,0-1.688-1-1.688-2.241C.027,5.021-.6,2.291,4.173,0Z" transform="translate(51.589 2.933)" fill="#efd7ab" stroke="#231f20" stroke-miterlimit="10" stroke-width="1"/>
    <path id="Stroke_61" data-name="Stroke 61" d="M0,2.9V0" transform="translate(55.762 0.032)" fill="none" stroke="#231f20" stroke-linecap="round" stroke-linejoin="round" stroke-miterlimit="10" stroke-width="1"/>
    <path id="Stroke_64" data-name="Stroke 64" d="M9.964,5.763a1.347,1.347,0,0,1-1.29,1.4H1.29A1.346,1.346,0,0,1,0,5.763V1.4A1.349,1.349,0,0,1,1.29,0H8.673a1.35,1.35,0,0,1,1.29,1.4Z" transform="translate(50.781 16.34)" fill="#efd7ab" stroke="#231f20" stroke-linecap="round" stroke-linejoin="round" stroke-miterlimit="10" stroke-width="1"/>
    <path id="Fill_65" data-name="Fill 65" d="M13.665,6.151a1.346,1.346,0,0,1-1.284,1.4H1.285A1.347,1.347,0,0,1,0,6.151V1.4A1.344,1.344,0,0,1,1.285,0h11.1a1.343,1.343,0,0,1,1.284,1.4Z" transform="translate(48.931 32.724)" fill="#efd7ab"/>
    <path id="Stroke_66" data-name="Stroke 66" d="M13.665,6.151a1.346,1.346,0,0,1-1.284,1.4H1.285A1.347,1.347,0,0,1,0,6.151V1.4A1.344,1.344,0,0,1,1.285,0h11.1a1.343,1.343,0,0,1,1.284,1.4Z" transform="translate(48.931 32.724)" fill="none" stroke="#231f20" stroke-linecap="round" stroke-linejoin="round" stroke-miterlimit="10" stroke-width="1"/>
    <path id="Fill_67" data-name="Fill 67" d="M15.278,7.666a1.35,1.35,0,0,1-1.286,1.4H1.286A1.35,1.35,0,0,1,0,7.666V1.4A1.352,1.352,0,0,1,1.286,0H13.992a1.351,1.351,0,0,1,1.286,1.4Z" transform="translate(48.123 51.883)" fill="#efd7ab"/>
    <path id="Stroke_68" data-name="Stroke 68" d="M15.278,7.666a1.35,1.35,0,0,1-1.286,1.4H1.286A1.35,1.35,0,0,1,0,7.666V1.4A1.352,1.352,0,0,1,1.286,0H13.992a1.351,1.351,0,0,1,1.286,1.4Z" transform="translate(48.123 51.883)" fill="none" stroke="#231f20" stroke-linecap="round" stroke-linejoin="round" stroke-miterlimit="10" stroke-width="1"/>
    <path id="Stroke_70" data-name="Stroke 70" d="M34.7.064V0H2.459V.064a1.35,1.35,0,0,1-1.289,1.4H0V34.818H37.106V1.467H35.99A1.35,1.35,0,0,1,34.7.064Z" transform="translate(13.419 59.484)" fill="#efd7ab" stroke="#231f20" stroke-miterlimit="10" stroke-width="1"/>
    <path id="Stroke_72" data-name="Stroke 72" d="M4.966,2.707A2.6,2.6,0,0,1,2.486,5.416,2.606,2.606,0,0,1,0,2.707,2.605,2.605,0,0,1,2.486,0,2.6,2.6,0,0,1,4.966,2.707Z" transform="translate(17.347 63.691)" fill="#eac591" stroke="#231f20" stroke-linecap="round" stroke-linejoin="round" stroke-miterlimit="10" stroke-width="1"/>
    <path id="Stroke_74" data-name="Stroke 74" d="M4.964,2.707A2.6,2.6,0,0,1,2.483,5.416,2.6,2.6,0,0,1,0,2.707,2.6,2.6,0,0,1,2.483,0,2.6,2.6,0,0,1,4.964,2.707Z" transform="translate(41.646 63.691)" fill="#eac591" stroke="#231f20" stroke-linecap="round" stroke-linejoin="round" stroke-miterlimit="10" stroke-width="1"/>
    <path id="Stroke_76" data-name="Stroke 76" d="M.012,28.819V13.528S-.775,5.414,10.446,0h.006C21.677,5.414,20.886,13.528,20.886,13.528V28.819Z" transform="translate(21.568 65.483)" fill="#eac591" stroke="#231f20" stroke-miterlimit="10" stroke-width="1"/>
    <text id="Hyderabad-2" data-name="Hyderabad" transform="translate(0 129)" font-size="13" font-family="SegoeUI, Segoe UI"><tspan x="0" y="0">Hyderabad</tspan></text>
  </g>
</svg>
