<svg xmlns="http://www.w3.org/2000/svg" width="88.099" height="125.5" viewBox="0 0 88.099 125.5">
  <g id="Jaipur" transform="translate(-0.164 0.5)">
    <path id="Stroke_2" data-name="Stroke 2" d="M0,4V0" transform="translate(44)" fill="none" stroke="#231f20" stroke-linecap="round" stroke-linejoin="round" stroke-miterlimit="10" stroke-width="1"/>
    <path id="Stroke_5" data-name="Stroke 5" d="M0,21H11V0H0Z" transform="translate(39 72)" fill="#ff8c78" stroke="#231f20" stroke-linecap="round" stroke-linejoin="round" stroke-miterlimit="10" stroke-width="1"/>
    <path id="Stroke_8" data-name="Stroke 8" d="M11,17H.031L0,0H10.972Z" transform="translate(39 16)" fill="#ff8c78" stroke="#231f20" stroke-linecap="round" stroke-linejoin="round" stroke-miterlimit="10" stroke-width="1"/>
    <path id="Stroke_10" data-name="Stroke 10" d="M10.972,18H0L.029,0H11Z" transform="translate(39 33)" fill="#ff8c78" stroke="#231f20" stroke-linecap="round" stroke-linejoin="round" stroke-miterlimit="10" stroke-width="1"/>
    <path id="Stroke_12" data-name="Stroke 12" d="M0,21H11V0H0Z" transform="translate(39 51)" fill="#ff8c78" stroke="#231f20" stroke-linecap="round" stroke-linejoin="round" stroke-miterlimit="10" stroke-width="1"/>
    <path id="Stroke_15" data-name="Stroke 15" d="M10.878,12.508V11.076a18.452,18.452,0,0,0-.263-2.944A11.57,11.57,0,0,0,5.437,0,11.577,11.577,0,0,0,.258,8.133,18.108,18.108,0,0,0,0,11.076v1.432Z" transform="translate(38.763 3.288)" fill="#f3c5a1" stroke="#231f20" stroke-miterlimit="10" stroke-width="1"/>
    <path id="Stroke_19" data-name="Stroke 19" d="M2.928,1.472A1.464,1.464,0,1,0,0,1.472V8.324H2.928Z" transform="translate(42.77 19.858)" fill="#be664d" stroke="#231f20" stroke-miterlimit="10" stroke-width="1"/>
    <path id="Stroke_23" data-name="Stroke 23" d="M2.926,1.549A1.51,1.51,0,0,0,1.461,0,1.507,1.507,0,0,0,0,1.549V8.832H2.926Z" transform="translate(42.739 37.653)" fill="#be664d" stroke="#231f20" stroke-miterlimit="10" stroke-width="1"/>
    <path id="Stroke_27" data-name="Stroke 27" d="M2.928,1.537A1.5,1.5,0,0,0,1.461,0,1.5,1.5,0,0,0,0,1.537v9.327H2.928Z" transform="translate(42.77 55.455)" fill="#be664d" stroke="#231f20" stroke-miterlimit="10" stroke-width="1"/>
    <path id="Stroke_31" data-name="Stroke 31" d="M2.928,1.479A1.464,1.464,0,1,0,0,1.479v8.967H2.928Z" transform="translate(42.77 77.439)" fill="#be664d" stroke="#231f20" stroke-miterlimit="10" stroke-width="1"/>
    <path id="Stroke_35" data-name="Stroke 35" d="M5.464,75.127V5.538a8.836,8.836,0,0,0-.135-1.469A5.762,5.762,0,0,0,2.73,0a5.782,5.782,0,0,0-2.6,4.068A9.011,9.011,0,0,0,0,5.538V75.127Z" transform="translate(33.299 17.873)" fill="#f3c5a1" stroke="#231f20" stroke-miterlimit="10" stroke-width="1"/>
    <path id="Stroke_39" data-name="Stroke 39" d="M10.877,12.509V11.075a17.915,17.915,0,0,0-.26-2.942A11.563,11.563,0,0,0,5.437,0,11.552,11.552,0,0,0,.262,8.133,17.189,17.189,0,0,0,0,11.075v1.434Z" transform="translate(22.43 20.322)" fill="#f3c5a1" stroke="#231f20" stroke-miterlimit="10" stroke-width="1"/>
    <path id="Stroke_43" data-name="Stroke 43" d="M0,21H10.877V0H0Z" transform="translate(22.123 72)" fill="#ff8c78" stroke="#231f20" stroke-linecap="round" stroke-linejoin="round" stroke-miterlimit="10" stroke-width="1"/>
    <path id="Stroke_45" data-name="Stroke 45" d="M10.877,18.482H0L.031,0H10.91Z" transform="translate(22.43 32.8)" fill="#ff8c78" stroke="#231f20" stroke-linecap="round" stroke-linejoin="round" stroke-miterlimit="10" stroke-width="1"/>
    <path id="Stroke_47" data-name="Stroke 47" d="M0,20.814H10.877V0H0Z" transform="translate(22.429 51.282)" fill="#ff8c78" stroke="#231f20" stroke-linecap="round" stroke-linejoin="round" stroke-miterlimit="10" stroke-width="1"/>
    <path id="Stroke_49" data-name="Stroke 49" d="M0,3.593V0" transform="translate(27.903 16.73)" fill="none" stroke="#231f20" stroke-linecap="round" stroke-linejoin="round" stroke-miterlimit="10" stroke-width="1"/>
    <path id="Stroke_52" data-name="Stroke 52" d="M2.926,1.551A1.511,1.511,0,0,0,1.461,0,1.508,1.508,0,0,0,0,1.551V8.83H2.926Z" transform="translate(26.405 37.625)" fill="#be664d" stroke="#231f20" stroke-miterlimit="10" stroke-width="1"/>
    <path id="Stroke_54" data-name="Stroke 54" d="M2.929,1.543A1.5,1.5,0,0,0,1.468,0,1.505,1.505,0,0,0,0,1.543v9.323H2.929Z" transform="translate(26.435 55.425)" fill="#be664d" stroke="#231f20" stroke-miterlimit="10" stroke-width="1"/>
    <path id="Stroke_56" data-name="Stroke 56" d="M2.929,1.479A1.472,1.472,0,0,0,1.468,0,1.474,1.474,0,0,0,0,1.479v8.966H2.929Z" transform="translate(26.435 77.41)" fill="#be664d" stroke="#231f20" stroke-miterlimit="10" stroke-width="1"/>
    <path id="Stroke_58" data-name="Stroke 58" d="M5.466,58.164V5.529a8.9,8.9,0,0,0-.137-1.466A5.764,5.764,0,0,0,2.731,0,5.79,5.79,0,0,0,.13,4.063,9.338,9.338,0,0,0,0,5.529V58.164Z" transform="translate(16.981 34.836)" fill="#f3c5a1" stroke="#231f20" stroke-miterlimit="10" stroke-width="1"/>
    <path id="Stroke_60" data-name="Stroke 60" d="M0,21H10.879V0H0Z" transform="translate(6.14 72.095)" fill="#ff8c78" stroke="#231f20" stroke-linecap="round" stroke-linejoin="round" stroke-miterlimit="10" stroke-width="1"/>
    <path id="Stroke_62" data-name="Stroke 62" d="M0,20.814H10.879V0H0Z" transform="translate(6.14 51.282)" fill="#ff8c78" stroke="#231f20" stroke-linecap="round" stroke-linejoin="round" stroke-miterlimit="10" stroke-width="1"/>
    <path id="Stroke_64" data-name="Stroke 64" d="M10.879,12.508V11.076a17.957,17.957,0,0,0-.26-2.945A11.583,11.583,0,0,0,5.441,0,11.543,11.543,0,0,0,.266,8.131,17.3,17.3,0,0,0,0,11.076v1.432Z" transform="translate(6.139 38.774)" fill="#f3c5a1" stroke="#231f20" stroke-miterlimit="10" stroke-width="1"/>
    <path id="Stroke_66" data-name="Stroke 66" d="M2.932,1.543A1.5,1.5,0,0,0,1.47,0,1.509,1.509,0,0,0,0,1.543v9.323H2.932Z" transform="translate(10.109 55.425)" fill="#be664d" stroke="#231f20" stroke-miterlimit="10" stroke-width="1"/>
    <path id="Stroke_68" data-name="Stroke 68" d="M2.932,1.479A1.471,1.471,0,0,0,1.47,0,1.478,1.478,0,0,0,0,1.479v8.966H2.932Z" transform="translate(10.109 77.41)" fill="#be664d" stroke="#231f20" stroke-miterlimit="10" stroke-width="1"/>
    <path id="Stroke_70" data-name="Stroke 70" d="M0,3.594V0" transform="translate(11.58 35.18)" fill="none" stroke="#231f20" stroke-linecap="round" stroke-linejoin="round" stroke-miterlimit="10" stroke-width="1"/>
    <path id="Stroke_73" data-name="Stroke 73" d="M0,58.164V5.529A8.425,8.425,0,0,1,.132,4.063,5.753,5.753,0,0,1,2.728,0a5.759,5.759,0,0,1,2.6,4.063,8.815,8.815,0,0,1,.133,1.466V58.164Z" transform="translate(65.991 34.836)" fill="#f3c5a1" stroke="#231f20" stroke-miterlimit="10" stroke-width="1"/>
    <path id="Stroke_75" data-name="Stroke 75" d="M0,41.2V5.515A8.715,8.715,0,0,1,.13,4.056,5.767,5.767,0,0,1,2.73,0a5.747,5.747,0,0,1,2.6,4.056,8.112,8.112,0,0,1,.133,1.459V41.2Z" transform="translate(82.305 51.8)" fill="#f3c5a1" stroke="#231f20" stroke-miterlimit="10" stroke-width="1"/>
    <path id="Stroke_77" data-name="Stroke 77" d="M0,21H10.878V0H0Z" transform="translate(71.423 72.095)" fill="#ff8c78" stroke="#231f20" stroke-linecap="round" stroke-linejoin="round" stroke-miterlimit="10" stroke-width="1"/>
    <path id="Stroke_79" data-name="Stroke 79" d="M0,20.814H10.878V0H0Z" transform="translate(71.423 51.282)" fill="#ff8c78" stroke="#231f20" stroke-linecap="round" stroke-linejoin="round" stroke-miterlimit="10" stroke-width="1"/>
    <path id="Stroke_81" data-name="Stroke 81" d="M0,3.594V0" transform="translate(76.859 35.18)" fill="none" stroke="#231f20" stroke-linecap="round" stroke-linejoin="round" stroke-miterlimit="10" stroke-width="1"/>
    <path id="Stroke_84" data-name="Stroke 84" d="M0,12.508V11.076A18.217,18.217,0,0,1,.256,8.131,11.6,11.6,0,0,1,5.437,0a11.556,11.556,0,0,1,5.178,8.131,17.788,17.788,0,0,1,.263,2.945v1.432Z" transform="translate(71.423 38.774)" fill="#f3c5a1" stroke="#231f20" stroke-miterlimit="10" stroke-width="1"/>
    <path id="Stroke_86" data-name="Stroke 86" d="M0,1.543A1.506,1.506,0,0,1,1.465,0,1.5,1.5,0,0,1,2.928,1.543v9.323H0Z" transform="translate(75.4 55.425)" fill="#be664d" stroke="#231f20" stroke-miterlimit="10" stroke-width="1"/>
    <path id="Stroke_88" data-name="Stroke 88" d="M0,1.479A1.475,1.475,0,0,1,1.465,0,1.472,1.472,0,0,1,2.928,1.479v8.966H0Z" transform="translate(75.4 77.41)" fill="#be664d" stroke="#231f20" stroke-miterlimit="10" stroke-width="1"/>
    <path id="Stroke_90" data-name="Stroke 90" d="M0,75.127V5.538A9.389,9.389,0,0,1,.13,4.068,5.809,5.809,0,0,1,2.568,0,5.846,5.846,0,0,1,5.011,4.068a9.761,9.761,0,0,1,.122,1.469V75.127Z" transform="translate(50 17.873)" fill="#f3c5a1" stroke="#231f20" stroke-miterlimit="10" stroke-width="1"/>
    <path id="Stroke_92" data-name="Stroke 92" d="M5.464,41.2V5.515a8.877,8.877,0,0,0-.133-1.459A5.745,5.745,0,0,0,2.731,0a5.767,5.767,0,0,0-2.6,4.056A8.478,8.478,0,0,0,0,5.515V41.2Z" transform="translate(0.665 51.8)" fill="#f3c5a1" stroke="#231f20" stroke-miterlimit="10" stroke-width="1"/>
    <path id="Stroke_94" data-name="Stroke 94" d="M10.883,12.509V11.075a17.912,17.912,0,0,0-.263-2.942A11.586,11.586,0,0,0,5.438,0,11.57,11.57,0,0,0,.263,8.133,17.583,17.583,0,0,0,0,11.075v1.434Z" transform="translate(55.091 20.322)" fill="#f3c5a1" stroke="#231f20" stroke-miterlimit="10" stroke-width="1"/>
    <path id="Stroke_96" data-name="Stroke 96" d="M0,21H10.883V0H0Z" transform="translate(55.091 72.095)" fill="#ff8c78" stroke="#231f20" stroke-linecap="round" stroke-linejoin="round" stroke-miterlimit="10" stroke-width="1"/>
    <path id="Stroke_98" data-name="Stroke 98" d="M10.883,18.482H0L.033,0H10.911Z" transform="translate(55.091 32.8)" fill="#ff8c78" stroke="#231f20" stroke-linecap="round" stroke-linejoin="round" stroke-miterlimit="10" stroke-width="1"/>
    <path id="Stroke_100" data-name="Stroke 100" d="M0,20.814H10.883V0H0Z" transform="translate(55.091 51.282)" fill="#ff8c78" stroke="#231f20" stroke-linecap="round" stroke-linejoin="round" stroke-miterlimit="10" stroke-width="1"/>
    <path id="Stroke_102" data-name="Stroke 102" d="M0,3.593V0" transform="translate(60.565 16.73)" fill="none" stroke="#231f20" stroke-linecap="round" stroke-linejoin="round" stroke-miterlimit="10" stroke-width="1"/>
    <path id="Stroke_105" data-name="Stroke 105" d="M2.93,1.551A1.512,1.512,0,0,0,1.464,0,1.512,1.512,0,0,0,0,1.551V8.83H2.93Z" transform="translate(59.067 37.625)" fill="#be664d" stroke="#231f20" stroke-miterlimit="10" stroke-width="1"/>
    <path id="Stroke_107" data-name="Stroke 107" d="M2.924,1.543A1.5,1.5,0,0,0,1.463,0,1.5,1.5,0,0,0,0,1.543v9.323H2.924Z" transform="translate(59.102 55.425)" fill="#be664d" stroke="#231f20" stroke-miterlimit="10" stroke-width="1"/>
    <path id="Stroke_109" data-name="Stroke 109" d="M2.924,1.479A1.471,1.471,0,0,0,1.463,0,1.471,1.471,0,0,0,0,1.479v8.966H2.924Z" transform="translate(59.102 77.41)" fill="#be664d" stroke="#231f20" stroke-miterlimit="10" stroke-width="1"/>
    <text id="Jaipur-2" data-name="Jaipur" transform="translate(26 122)" font-size="13" font-family="SegoeUI, Segoe UI"><tspan x="0" y="0">Jaipur</tspan></text>
  </g>
</svg>
