<svg xmlns="http://www.w3.org/2000/svg" width="68" height="128.254" viewBox="0 0 68 128.254">
  <g id="Kolkatta" transform="translate(0.5 0.254)">
    <path id="Stroke_3" data-name="Stroke 3" d="M0,20.989a83.75,83.75,0,0,1,20.009-2.278A83.364,83.364,0,0,1,40,20.987V9.5l0-.039-.272-3.78s-.024-.537.026-1.349C34.986,1.689,27.911,0,19.995,0,12.1,0,5.031,1.683.268,4.322.321,5.137.3,5.684.3,5.684L.029,9.464,0,9.758H0V20.989Z" transform="translate(14 48)" fill="#f2e4c5" stroke="#231f20" stroke-linecap="round" stroke-linejoin="round" stroke-miterlimit="10" stroke-width="1"/>
    <path id="Stroke_7" data-name="Stroke 7" d="M16.533,23H.567L.01,17.125S-.646,5.923,8.554,0c9.192,5.923,8.431,17.211,8.431,17.211Z" transform="translate(24 5)" fill="#cfb997" stroke="#231f20" stroke-miterlimit="10" stroke-width="1"/>
    <path id="Stroke_11" data-name="Stroke 11" d="M0,4.564V0" transform="translate(32.392 0.246)" fill="none" stroke="#231f20" stroke-linecap="round" stroke-linejoin="round" stroke-miterlimit="10" stroke-width="1"/>
    <path id="Stroke_15" data-name="Stroke 15" d="M15.993,6.468l-.018-.259L15.71,2.871A12.965,12.965,0,0,1,15.951,0H.023A12.827,12.827,0,0,1,.258,2.871L0,6.208V16.981A54.246,54.246,0,0,1,7.936,16.4,53.6,53.6,0,0,1,16,17V6.468Z" transform="translate(25 28)" fill="#f2e4c5" stroke="#231f20" stroke-linecap="round" stroke-linejoin="round" stroke-miterlimit="10" stroke-width="1"/>
    <path id="Stroke_19" data-name="Stroke 19" d="M2.5,11.942c.849,0,1.68.026,2.5.058V2.348A2.431,2.431,0,0,0,2.5,0,2.428,2.428,0,0,0,0,2.348V12C.828,11.968,1.654,11.942,2.5,11.942Z" transform="translate(31 32)" fill="#cfb997" stroke="#231f20" stroke-miterlimit="10" stroke-width="1"/>
    <path id="Stroke_23" data-name="Stroke 23" d="M0,3V0" transform="translate(19 17)" fill="none" stroke="#231f20" stroke-linecap="round" stroke-linejoin="round" stroke-miterlimit="10" stroke-width="1"/>
    <path id="Stroke_27" data-name="Stroke 27" d="M11.7,7.664h.028A11.243,11.243,0,0,0,6.039,0,11.632,11.632,0,0,0,.007,10.423L.4,14H11.679l.022-.254.29-3.27a11.021,11.021,0,0,0-.263-2.813Z" transform="translate(13 20)" fill="#cfb997" stroke="#231f20" stroke-miterlimit="10" stroke-width="1"/>
    <path id="Fill_29" data-name="Fill 29" d="M11,10.989V0H0V14a41.538,41.538,0,0,1,11-3.011" transform="translate(14 34)" fill="#f2e4c5"/>
    <path id="Stroke_31" data-name="Stroke 31" d="M11,10.989V0H0V14A41.538,41.538,0,0,1,11,10.989Z" transform="translate(14 34)" fill="none" stroke="#231f20" stroke-miterlimit="10" stroke-width="1"/>
    <path id="Stroke_35" data-name="Stroke 35" d="M3,8.241v-6.8A1.476,1.476,0,0,0,1.5,0,1.473,1.473,0,0,0,0,1.445V9Q1.428,8.581,3,8.241Z" transform="translate(18 37)" fill="#cfb997" stroke="#231f20" stroke-miterlimit="10" stroke-width="1"/>
    <path id="Fill_37" data-name="Fill 37" d="M0,3.291V0" transform="translate(46.703 15.112)" fill="#fff"/>
    <path id="Stroke_39" data-name="Stroke 39" d="M0,3.291V0" transform="translate(47 17)" fill="none" stroke="#231f20" stroke-linecap="round" stroke-linejoin="round" stroke-miterlimit="10" stroke-width="1"/>
    <path id="Stroke_43" data-name="Stroke 43" d="M.306,7.664H.277A11.263,11.263,0,0,1,5.966,0a11.642,11.642,0,0,1,6.027,10.423L11.6,14H.326l-.02-.254-.3-3.27A11.146,11.146,0,0,1,.277,7.664Z" transform="translate(41 20)" fill="#cfb997" stroke="#231f20" stroke-miterlimit="10" stroke-width="1"/>
    <path id="Stroke_47" data-name="Stroke 47" d="M0,10.989V0H12V14A48.52,48.52,0,0,0,0,10.989Z" transform="translate(41 34)" fill="#f2e4c5" stroke="#231f20" stroke-miterlimit="10" stroke-width="1"/>
    <path id="Stroke_51" data-name="Stroke 51" d="M0,8.241v-6.8A1.47,1.47,0,0,1,1.5,0,1.475,1.475,0,0,1,3,1.445V9C2.045,8.721,1.048,8.466,0,8.241Z" transform="translate(45 37)" fill="#cfb997" stroke="#231f20" stroke-miterlimit="10" stroke-width="1"/>
    <path id="Stroke_55" data-name="Stroke 55" d="M0,3.7V0" transform="translate(58.897 38.862)" fill="none" stroke="#231f20" stroke-linecap="round" stroke-linejoin="round" stroke-miterlimit="10" stroke-width="1"/>
    <path id="Stroke_59" data-name="Stroke 59" d="M.276,7.662H.249A11.251,11.251,0,0,1,5.465,0c5.952,3.605,5.528,10.421,5.528,10.421L10.634,14H.294l-.018-.254L.01,10.478A11.7,11.7,0,0,1,.249,7.662Z" transform="translate(53 43)" fill="#cfb997" stroke="#231f20" stroke-miterlimit="10" stroke-width="1"/>
    <path id="Stroke_63" data-name="Stroke 63" d="M10.036,13.618c.319.129.663.25.964.382V0H0V10.357A48.6,48.6,0,0,1,10.036,13.618Z" transform="translate(53 57)" fill="#f2e4c5" stroke="#231f20" stroke-miterlimit="10" stroke-width="1"/>
    <path id="Stroke_67" data-name="Stroke 67" d="M3,9V1.467A1.485,1.485,0,0,0,1.5,0,1.482,1.482,0,0,0,0,1.467V8.03C1.054,8.334,2.049,8.657,3,9Z" transform="translate(57 60)" fill="#cfb997" stroke="#231f20" stroke-miterlimit="10" stroke-width="1"/>
    <path id="Stroke_71" data-name="Stroke 71" d="M19.5,0C11.65,0,4.643,1.574,0,4.046V7.03c.013.079.038.164.05.239a13.657,13.657,0,0,1,.211,1.72C4.906,6.593,11.8,5.067,19.5,5.067,27.213,5.067,34.111,6.6,38.756,9a13.841,13.841,0,0,1,.214-1.732c.008-.04.022-.083.031-.126v-3.1C34.351,1.574,27.34,0,19.5,0Z" transform="translate(14 44)" fill="#cfb997" stroke="#231f20" stroke-linecap="round" stroke-linejoin="round" stroke-miterlimit="10" stroke-width="1"/>
    <path id="Stroke_75" data-name="Stroke 75" d="M0,3.7V0" transform="translate(8.416 38.862)" fill="none" stroke="#231f20" stroke-linecap="round" stroke-linejoin="round" stroke-miterlimit="10" stroke-width="1"/>
    <path id="Stroke_79" data-name="Stroke 79" d="M10.726,7.662h.024A11.26,11.26,0,0,0,5.535,0C-.417,3.605.007,10.421.007,10.421L.364,14H10.7l.024-.254.265-3.268a11.932,11.932,0,0,0-.241-2.816Z" transform="translate(3 43)" fill="#cfb997" stroke="#231f20" stroke-miterlimit="10" stroke-width="1"/>
    <path id="Stroke_83" data-name="Stroke 83" d="M11,10.357V0H0V14c.306-.132.654-.256.975-.385A48.8,48.8,0,0,1,11,10.357Z" transform="translate(3 57)" fill="#f2e4c5" stroke="#231f20" stroke-miterlimit="10" stroke-width="1"/>
    <path id="Stroke_87" data-name="Stroke 87" d="M3,8.03V1.467A1.483,1.483,0,0,0,1.5,0,1.485,1.485,0,0,0,0,1.467V9Q1.419,8.485,3,8.03Z" transform="translate(7 60)" fill="#cfb997" stroke="#231f20" stroke-miterlimit="10" stroke-width="1"/>
    <path id="Stroke_95" data-name="Stroke 95" d="M62,5.924C55.429,2.358,44.056,0,31.12,0,18.025,0,6.529,2.421,0,6.056V27H62Z" transform="translate(3 70)" fill="#f2e4c5" stroke="#231f20" stroke-linecap="round" stroke-linejoin="round" stroke-miterlimit="10" stroke-width="1"/>
    <path id="Stroke_99" data-name="Stroke 99" d="M5,10V2.306A2.408,2.408,0,0,0,2.5,0,2.4,2.4,0,0,0,0,2.306V9.533Q2.566,9.726,5,10Z" transform="translate(42 57)" fill="#cfb997" stroke="#231f20" stroke-miterlimit="10" stroke-width="1"/>
    <path id="Stroke_103" data-name="Stroke 103" d="M2.513,11.973c.837,0,1.664.012,2.487.027V2.437A2.47,2.47,0,0,0,2.5,0,2.467,2.467,0,0,0,0,2.437V12C.835,11.985,1.67,11.973,2.513,11.973Z" transform="translate(31 55)" fill="#cfb997" stroke="#231f20" stroke-miterlimit="10" stroke-width="1"/>
    <path id="Stroke_107" data-name="Stroke 107" d="M5,9.526V2.3A2.4,2.4,0,0,0,2.5,0,2.409,2.409,0,0,0,0,2.3V10Q2.432,9.712,5,9.526Z" transform="translate(21 57)" fill="#cfb997" stroke="#231f20" stroke-miterlimit="10" stroke-width="1"/>
    <path id="Stroke_91" data-name="Stroke 91" d="M0,13C5.6,8.6,18.483,5.521,33.5,5.521S61.4,8.6,67,13V7.475C61.4,3.078,48.516,0,33.5,0S5.6,3.078,0,7.475Z" transform="translate(0 65)" fill="#f2e4c5" stroke="#231f20" stroke-linecap="round" stroke-linejoin="round" stroke-miterlimit="10" stroke-width="1"/>
    <path id="Stroke_111" data-name="Stroke 111" d="M3.5,0A3.486,3.486,0,0,0,0,3.473V14H7V3.473A3.488,3.488,0,0,0,3.5,0Z" transform="translate(30 83)" fill="#cfb997" stroke="#231f20" stroke-miterlimit="10" stroke-width="1"/>
    <path id="Stroke_115" data-name="Stroke 115" d="M3.5,0A3.488,3.488,0,0,0,0,3.473V14H7V3.473A3.486,3.486,0,0,0,3.5,0Z" transform="translate(18 83)" fill="#cfb997" stroke="#231f20" stroke-miterlimit="10" stroke-width="1"/>
    <path id="Stroke_119" data-name="Stroke 119" d="M3.5,0A3.487,3.487,0,0,0,0,3.473V14H7V3.473A3.486,3.486,0,0,0,3.5,0Z" transform="translate(7 83)" fill="#cfb997" stroke="#231f20" stroke-miterlimit="10" stroke-width="1"/>
    <path id="Stroke_123" data-name="Stroke 123" d="M3.5,0A3.488,3.488,0,0,0,0,3.473V14H7V3.473A3.486,3.486,0,0,0,3.5,0Z" transform="translate(41 83)" fill="#cfb997" stroke="#231f20" stroke-miterlimit="10" stroke-width="1"/>
    <path id="Stroke_127" data-name="Stroke 127" d="M3.5,0A3.486,3.486,0,0,0,0,3.473V14H7V3.473A3.49,3.49,0,0,0,3.5,0Z" transform="translate(53 83)" fill="#cfb997" stroke="#231f20" stroke-miterlimit="10" stroke-width="1"/>
    <text id="Kolkatta-2" data-name="Kolkatta" transform="translate(13 125)" font-size="13" font-family="SegoeUI, Segoe UI"><tspan x="0" y="0">Kolkatta</tspan></text>
  </g>
</svg>
