<svg xmlns="http://www.w3.org/2000/svg" width="105.001" height="105.501" viewBox="0 0 105.001 105.501">
  <g id="Lucknow" transform="translate(0.501 0.501)">
    <path id="Stroke_2" data-name="Stroke 2" d="M0,47H101V0H0Z" transform="translate(1 27)" fill="none" stroke="#231f20" stroke-linecap="round" stroke-linejoin="round" stroke-miterlimit="10" stroke-width="1"/>
    <path id="Stroke_5" data-name="Stroke 5" d="M0,32H101V0H0Z" transform="translate(1 42)" fill="#faf3d3" stroke="#231f20" stroke-linecap="round" stroke-linejoin="round" stroke-miterlimit="10" stroke-width="1"/>
    <path id="Stroke_8" data-name="Stroke 8" d="M16,10.506C16.2,1.743,8,0,8,0S-.2,1.743,0,10.506V23H16Z" transform="translate(14 51)" fill="#e2d9ad" stroke="#231f20" stroke-linecap="round" stroke-linejoin="round" stroke-miterlimit="10" stroke-width="1"/>
    <path id="Stroke_10" data-name="Stroke 10" d="M15.992,10.506C16.2,1.743,8,0,8,0S-.2,1.743,0,10.506V23H16Z" transform="translate(44 51)" fill="#e2d9ad" stroke="#231f20" stroke-linecap="round" stroke-linejoin="round" stroke-miterlimit="10" stroke-width="1"/>
    <path id="Stroke_12" data-name="Stroke 12" d="M15.992,10.506C16.2,1.743,8,0,8,0S-.2,1.743,0,10.506V23H16Z" transform="translate(73 51)" fill="#e2d9ad" stroke="#231f20" stroke-linecap="round" stroke-linejoin="round" stroke-miterlimit="10" stroke-width="1"/>
    <path id="Stroke_14" data-name="Stroke 14" d="M0,15H101V0H0Z" transform="translate(1 27)" fill="#faf3d3" stroke="#231f20" stroke-linecap="round" stroke-linejoin="round" stroke-miterlimit="10" stroke-width="1"/>
    <path id="Stroke_16" data-name="Stroke 16" d="M7,4.112C7.093.68,3.5,0,3.5,0S-.086.68,0,4.112V9H7Z" transform="translate(9 33)" fill="#e2d9ad" stroke="#231f20" stroke-linecap="round" stroke-linejoin="round" stroke-miterlimit="10" stroke-width="1"/>
    <path id="Stroke_18" data-name="Stroke 18" d="M7,4.11C7.09.684,3.5,0,3.5,0S-.095.684,0,4.11V9H7Z" transform="translate(22 33)" fill="#e2d9ad" stroke="#231f20" stroke-linecap="round" stroke-linejoin="round" stroke-miterlimit="10" stroke-width="1"/>
    <path id="Stroke_20" data-name="Stroke 20" d="M6.993,4.11C7.088.684,3.5,0,3.5,0S-.083.684,0,4.11V9H7Z" transform="translate(35 33)" fill="#e2d9ad" stroke="#231f20" stroke-linecap="round" stroke-linejoin="round" stroke-miterlimit="10" stroke-width="1"/>
    <path id="Stroke_22" data-name="Stroke 22" d="M7,4.11C7.085.684,3.5,0,3.5,0S-.091.684,0,4.11V9H7Z" transform="translate(49 33)" fill="#e2d9ad" stroke="#231f20" stroke-linecap="round" stroke-linejoin="round" stroke-miterlimit="10" stroke-width="1"/>
    <path id="Stroke_24" data-name="Stroke 24" d="M7,4.11C7.086.684,3.5,0,3.5,0S-.09.684,0,4.11V9H7Z" transform="translate(62 33)" fill="#e2d9ad" stroke="#231f20" stroke-linecap="round" stroke-linejoin="round" stroke-miterlimit="10" stroke-width="1"/>
    <path id="Stroke_26" data-name="Stroke 26" d="M7,4.11C7.085.684,3.5,0,3.5,0S-.085.684,0,4.11V9H7Z" transform="translate(75 33)" fill="#e2d9ad" stroke="#231f20" stroke-linecap="round" stroke-linejoin="round" stroke-miterlimit="10" stroke-width="1"/>
    <path id="Stroke_28" data-name="Stroke 28" d="M7,4.11C7.09.684,3.5,0,3.5,0S-.091.684,0,4.11V9H7Z" transform="translate(88 33)" fill="#e2d9ad" stroke="#231f20" stroke-linecap="round" stroke-linejoin="round" stroke-miterlimit="10" stroke-width="1"/>
    <path id="Stroke_30" data-name="Stroke 30" d="M5.992,6H0L.012,0H6Z" transform="translate(1 21)" fill="#e2d9ad" stroke="#231f20" stroke-linecap="round" stroke-linejoin="round" stroke-miterlimit="10" stroke-width="1"/>
    <path id="Stroke_32" data-name="Stroke 32" d="M5,7H0L.01,0H5Z" transform="translate(1 9)" fill="#e2d9ad" stroke="#231f20" stroke-linecap="round" stroke-linejoin="round" stroke-miterlimit="10" stroke-width="1"/>
    <path id="Stroke_34" data-name="Stroke 34" d="M7,4.334A4.376,4.376,0,0,0,3.5,0,4.373,4.373,0,0,0,0,4.334v.048A1.528,1.528,0,0,0,1.426,6H5.572A1.534,1.534,0,0,0,7,4.382Z" transform="translate(0 3)" fill="#faf3d3" stroke="#231f20" stroke-linecap="round" stroke-linejoin="round" stroke-miterlimit="10" stroke-width="1"/>
    <path id="Stroke_36" data-name="Stroke 36" d="M0,3V0" transform="translate(4)" fill="none" stroke="#231f20" stroke-linecap="round" stroke-linejoin="round" stroke-miterlimit="10" stroke-width="1"/>
    <path id="Stroke_39" data-name="Stroke 39" d="M8,3.416A1.589,1.589,0,0,1,6.409,5H1.592A1.59,1.59,0,0,1,0,3.416V1.584A1.588,1.588,0,0,1,1.592,0H6.409A1.587,1.587,0,0,1,8,1.584Z" transform="translate(0 16)" fill="#faf3d3" stroke="#231f20" stroke-linecap="round" stroke-linejoin="round" stroke-miterlimit="10" stroke-width="1"/>
    <path id="Stroke_41" data-name="Stroke 41" d="M4.993,6H0L.008,0H5Z" transform="translate(97 21)" fill="#e2d9ad" stroke="#231f20" stroke-linecap="round" stroke-linejoin="round" stroke-miterlimit="10" stroke-width="1"/>
    <path id="Stroke_43" data-name="Stroke 43" d="M4.993,7H0L.008,0H5Z" transform="translate(97 9)" fill="#e2d9ad" stroke="#231f20" stroke-linecap="round" stroke-linejoin="round" stroke-miterlimit="10" stroke-width="1"/>
    <path id="Stroke_45" data-name="Stroke 45" d="M7,4.334A4.375,4.375,0,0,0,3.493,0,4.366,4.366,0,0,0,0,4.334v.048A1.53,1.53,0,0,0,1.426,6H5.571A1.531,1.531,0,0,0,7,4.382Z" transform="translate(96 3)" fill="#faf3d3" stroke="#231f20" stroke-linecap="round" stroke-linejoin="round" stroke-miterlimit="10" stroke-width="1"/>
    <path id="Stroke_47" data-name="Stroke 47" d="M0,3,.006,0" transform="translate(100)" fill="none" stroke="#231f20" stroke-linecap="round" stroke-linejoin="round" stroke-miterlimit="10" stroke-width="1"/>
    <path id="Stroke_50" data-name="Stroke 50" d="M8,3.416A1.59,1.59,0,0,1,6.406,5H1.594A1.59,1.59,0,0,1,0,3.416V1.584A1.588,1.588,0,0,1,1.594,0H6.406A1.588,1.588,0,0,1,8,1.584Z" transform="translate(96 16)" fill="#faf3d3" stroke="#231f20" stroke-linecap="round" stroke-linejoin="round" stroke-miterlimit="10" stroke-width="1"/>
    <path id="Stroke_54" data-name="Stroke 54" d="M1.441,0a1.753,1.753,0,0,1,.034.175V1.952A1.509,1.509,0,0,1,0,3.489V10H14V0Z" transform="translate(7 17)" fill="#e2d9ad" stroke="#231f20" stroke-linecap="round" stroke-linejoin="round" stroke-miterlimit="10" stroke-width="1"/>
    <path id="Stroke_56" data-name="Stroke 56" d="M0,10H15V0H0Z" transform="translate(21 17)" fill="#e2d9ad" stroke="#231f20" stroke-linecap="round" stroke-linejoin="round" stroke-miterlimit="10" stroke-width="1"/>
    <path id="Stroke_58" data-name="Stroke 58" d="M0,10H16V0H0Z" transform="translate(36 17)" fill="#e2d9ad" stroke="#231f20" stroke-linecap="round" stroke-linejoin="round" stroke-miterlimit="10" stroke-width="1"/>
    <path id="Stroke_60" data-name="Stroke 60" d="M0,10H15V0H0Z" transform="translate(52 17)" fill="#e2d9ad" stroke="#231f20" stroke-linecap="round" stroke-linejoin="round" stroke-miterlimit="10" stroke-width="1"/>
    <path id="Stroke_62" data-name="Stroke 62" d="M0,10H15V0H0Z" transform="translate(67 17)" fill="#e2d9ad" stroke="#231f20" stroke-linecap="round" stroke-linejoin="round" stroke-miterlimit="10" stroke-width="1"/>
    <path id="Stroke_64" data-name="Stroke 64" d="M15,3.489a1.562,1.562,0,0,1-1.584-1.537V.175A1.654,1.654,0,0,1,13.452,0H0V10H15V3.489Z" transform="translate(82 17)" fill="#e2d9ad" stroke="#231f20" stroke-linecap="round" stroke-linejoin="round" stroke-miterlimit="10" stroke-width="1"/>
    <text id="Lucknow-2" data-name="Lucknow" transform="translate(29 102)" font-size="13" font-family="SegoeUI, Segoe UI"><tspan x="0" y="0">Lucknow</tspan></text>
  </g>
</svg>
