<svg xmlns="http://www.w3.org/2000/svg" width="103" height="104.5" viewBox="0 0 103 104.5">
  <g id="Mumbai" transform="translate(0.5 0.5)">
    <path id="Stroke_3" data-name="Stroke 3" d="M25.2,2.473V.767A4.86,4.86,0,0,1,25.2,0H0V7H27V4.031h-.347A1.508,1.508,0,0,1,25.2,2.473Z" transform="translate(0 40)" fill="#cfb997" stroke="#231f20" stroke-linecap="round" stroke-linejoin="round" stroke-miterlimit="10" stroke-width="1"/>
    <path id="Stroke_7" data-name="Stroke 7" d="M25.2,6.211A1.387,1.387,0,0,1,26.653,4.9H27L27,0H0V7H25.2Z" transform="translate(0 33)" fill="#f2e4c5" stroke="#231f20" stroke-linecap="round" stroke-linejoin="round" stroke-miterlimit="10" stroke-width="1"/>
    <path id="Stroke_11" data-name="Stroke 11" d="M0,26H27V0H0Z" transform="translate(0 47)" fill="#f2e4c5" stroke="#231f20" stroke-linecap="round" stroke-linejoin="round" stroke-miterlimit="10" stroke-width="1"/>
    <path id="Stroke_13" data-name="Stroke 13" d="M7.5,22H15V10.388l-.922-.82C14.25,1.584,7.5,0,7.5,0S.749,1.584.919,9.568L0,10.388V22Z" transform="translate(6 51)" fill="#cfb997" stroke="#231f20" stroke-linecap="round" stroke-linejoin="round" stroke-miterlimit="10" stroke-width="1"/>
    <path id="Stroke_17" data-name="Stroke 17" d="M31.161,0H1.839V4.7A1.477,1.477,0,0,1,.352,6.167H0V35H33L33,6.167V6.127h-.354a1.479,1.479,0,0,1-1.485-1.469V0Z" transform="translate(35 38)" fill="#f2e4c5" stroke="#231f20" stroke-linecap="round" stroke-linejoin="round" stroke-miterlimit="10" stroke-width="1"/>
    <path id="Fill_18" data-name="Fill 18" d="M10,3.567A1.443,1.443,0,0,1,8.548,5h-7.1A1.441,1.441,0,0,1,0,3.567V1.433A1.44,1.44,0,0,1,1.449,0h7.1A1.442,1.442,0,0,1,10,1.433Z" transform="translate(66 26)" fill="#fff"/>
    <path id="Stroke_19" data-name="Stroke 19" d="M10,3.567A1.443,1.443,0,0,1,8.548,5h-7.1A1.441,1.441,0,0,1,0,3.567V1.433A1.44,1.44,0,0,1,1.449,0h7.1A1.442,1.442,0,0,1,10,1.433Z" transform="translate(66 26)" fill="none" stroke="#231f20" stroke-linecap="round" stroke-linejoin="round" stroke-miterlimit="10" stroke-width="1"/>
    <path id="Stroke_21" data-name="Stroke 21" d="M1.2,0V.845a1.435,1.435,0,0,1-1.15,1.4L0,2.294V9H16V0Z" transform="translate(35 29)" fill="#cfb997" stroke="#231f20" stroke-linecap="round" stroke-linejoin="round" stroke-miterlimit="10" stroke-width="1"/>
    <path id="Stroke_23" data-name="Stroke 23" d="M14.815.857,14.8.842V0H0V9H16V2.3l-.084-.105A1.429,1.429,0,0,1,14.815.857Z" transform="translate(51 29)" fill="#cfb997" stroke="#231f20" stroke-linecap="round" stroke-linejoin="round" stroke-miterlimit="10" stroke-width="1"/>
    <path id="Stroke_25" data-name="Stroke 25" d="M3.995,6H0L.005,0H4Z" transform="translate(29 20)" fill="#cfb997" stroke="#231f20" stroke-linecap="round" stroke-linejoin="round" stroke-miterlimit="10" stroke-width="1"/>
    <path id="Stroke_27" data-name="Stroke 27" d="M4,5H0L.005,0H4Z" transform="translate(29 10)" fill="#cfb997" stroke="#231f20" stroke-linecap="round" stroke-linejoin="round" stroke-miterlimit="10" stroke-width="1"/>
    <path id="Stroke_29" data-name="Stroke 29" d="M8,7H0V0H8Z" transform="translate(27 31)" fill="#cfb997" stroke="#231f20" stroke-linecap="round" stroke-linejoin="round" stroke-miterlimit="10" stroke-width="1"/>
    <path id="Stroke_31" data-name="Stroke 31" d="M8,29H0L0,0H8Z" transform="translate(27 44)" fill="#cfb997" stroke="#231f20" stroke-linecap="round" stroke-linejoin="round" stroke-miterlimit="10" stroke-width="1"/>
    <path id="Stroke_33" data-name="Stroke 33" d="M6,4.332A4.151,4.151,0,0,0,3,0,4.15,4.15,0,0,0,0,4.332v.047C0,5.273.548,6,1.222,6H4.778C5.452,6,6,5.273,6,4.379Z" transform="translate(28 4)" fill="#f2e4c5" stroke="#231f20" stroke-linecap="round" stroke-linejoin="round" stroke-miterlimit="10" stroke-width="1"/>
    <path id="Fill_34" data-name="Fill 34" d="M0,3.5,0,0" transform="translate(31.141 1.22)" fill="#fff"/>
    <path id="Stroke_35" data-name="Stroke 35" d="M0,3.5,0,0" transform="translate(31)" fill="none" stroke="#231f20" stroke-linecap="round" stroke-linejoin="round" stroke-miterlimit="10" stroke-width="1"/>
    <path id="Stroke_38" data-name="Stroke 38" d="M7,3.418A1.5,1.5,0,0,1,5.609,5H1.391A1.5,1.5,0,0,1,0,3.418V1.583A1.5,1.5,0,0,1,1.391,0H5.609A1.5,1.5,0,0,1,7,1.583Z" transform="translate(27 15)" fill="#f2e4c5" stroke="#231f20" stroke-linecap="round" stroke-linejoin="round" stroke-miterlimit="10" stroke-width="1"/>
    <path id="Stroke_40" data-name="Stroke 40" d="M10,3.568A1.442,1.442,0,0,1,8.551,5h-7.1A1.442,1.442,0,0,1,0,3.568V1.432A1.442,1.442,0,0,1,1.452,0h7.1A1.442,1.442,0,0,1,10,1.432Z" transform="translate(26 26)" fill="#f2e4c5" stroke="#231f20" stroke-linecap="round" stroke-linejoin="round" stroke-miterlimit="10" stroke-width="1"/>
    <path id="Stroke_44" data-name="Stroke 44" d="M33.149,9V7.588a1.464,1.464,0,0,1,1.47-1.456H36V0H0V6.171H1.382A1.463,1.463,0,0,1,2.851,7.626V9Z" transform="translate(33 20)" fill="#f2e4c5" stroke="#231f20" stroke-linecap="round" stroke-linejoin="round" stroke-miterlimit="10" stroke-width="1"/>
    <path id="Stroke_46" data-name="Stroke 46" d="M4,6H0L.005,0H4Z" transform="translate(69 20)" fill="#cfb997" stroke="#231f20" stroke-linecap="round" stroke-linejoin="round" stroke-miterlimit="10" stroke-width="1"/>
    <path id="Stroke_48" data-name="Stroke 48" d="M4,5H0L.005,0H4Z" transform="translate(69 10)" fill="#cfb997" stroke="#231f20" stroke-linecap="round" stroke-linejoin="round" stroke-miterlimit="10" stroke-width="1"/>
    <path id="Stroke_50" data-name="Stroke 50" d="M8,7H0V0H7.994Z" transform="translate(67 31)" fill="#cfb997" stroke="#231f20" stroke-linecap="round" stroke-linejoin="round" stroke-miterlimit="10" stroke-width="1"/>
    <path id="Stroke_52" data-name="Stroke 52" d="M7,29H0L0,0H7Z" transform="translate(68 44)" fill="#cfb997" stroke="#231f20" stroke-linecap="round" stroke-linejoin="round" stroke-miterlimit="10" stroke-width="1"/>
    <path id="Stroke_54" data-name="Stroke 54" d="M6,4.332A4.152,4.152,0,0,0,3,0,4.153,4.153,0,0,0,0,4.332v.047C0,5.273.546,6,1.22,6H4.777C5.451,6,6,5.273,6,4.379Z" transform="translate(68 4)" fill="#f2e4c5" stroke="#231f20" stroke-linecap="round" stroke-linejoin="round" stroke-miterlimit="10" stroke-width="1"/>
    <path id="Fill_55" data-name="Fill 55" d="M0,3.5,0,0" transform="translate(71.213 1.174)" fill="#fff"/>
    <path id="Stroke_56" data-name="Stroke 56" d="M0,3.5,0,0" transform="translate(71)" fill="none" stroke="#231f20" stroke-linecap="round" stroke-linejoin="round" stroke-miterlimit="10" stroke-width="1"/>
    <path id="Stroke_59" data-name="Stroke 59" d="M7,3.417A1.5,1.5,0,0,1,5.609,5H1.391A1.5,1.5,0,0,1,0,3.417V1.582A1.5,1.5,0,0,1,1.391,0H5.609A1.5,1.5,0,0,1,7,1.582Z" transform="translate(67 15)" fill="#f2e4c5" stroke="#231f20" stroke-linecap="round" stroke-linejoin="round" stroke-miterlimit="10" stroke-width="1"/>
    <path id="Stroke_61" data-name="Stroke 61" d="M10,3.567A1.443,1.443,0,0,1,8.548,5h-7.1A1.441,1.441,0,0,1,0,3.567V1.433A1.44,1.44,0,0,1,1.449,0h7.1A1.442,1.442,0,0,1,10,1.433Z" transform="translate(66 26)" fill="#f2e4c5" stroke="#231f20" stroke-linecap="round" stroke-linejoin="round" stroke-miterlimit="10" stroke-width="1"/>
    <path id="Stroke_63" data-name="Stroke 63" d="M11,4.57A1.429,1.429,0,0,1,9.572,6H1.428A1.43,1.43,0,0,1,0,4.57V1.43A1.428,1.428,0,0,1,1.428,0H9.572A1.427,1.427,0,0,1,11,1.43Z" transform="translate(66 38)" fill="#f2e4c5" stroke="#231f20" stroke-linecap="round" stroke-linejoin="round" stroke-miterlimit="10" stroke-width="1"/>
    <path id="Stroke_63_Copy" data-name="Stroke 63 Copy" d="M12,4.57A1.5,1.5,0,0,1,10.442,6H1.558A1.5,1.5,0,0,1,0,4.57V1.43A1.5,1.5,0,0,1,1.558,0h8.884A1.5,1.5,0,0,1,12,1.43Z" transform="translate(25 38)" fill="#f2e4c5" stroke="#231f20" stroke-linecap="round" stroke-linejoin="round" stroke-miterlimit="10" stroke-width="1"/>
    <path id="Stroke_65" data-name="Stroke 65" d="M11.5,31H23V14.639l-1.411-1.154C21.849,2.235,11.5,0,11.5,0S1.151,2.235,1.411,13.485L0,14.639V31Z" transform="translate(39 42)" fill="#cfb997" stroke="#231f20" stroke-linecap="round" stroke-linejoin="round" stroke-miterlimit="10" stroke-width="1"/>
    <path id="Stroke_67" data-name="Stroke 67" d="M0,26H27V0H0Z" transform="translate(75 47)" fill="#f2e4c5" stroke="#231f20" stroke-linecap="round" stroke-linejoin="round" stroke-miterlimit="10" stroke-width="1"/>
    <path id="Stroke_69" data-name="Stroke 69" d="M0,0,0,4.865H.345A1.385,1.385,0,0,1,1.8,6.174V7H27V0Z" transform="translate(75 33)" fill="#f2e4c5" stroke="#231f20" stroke-linecap="round" stroke-linejoin="round" stroke-miterlimit="10" stroke-width="1"/>
    <path id="Stroke_71" data-name="Stroke 71" d="M1.8,0a4.861,4.861,0,0,1,0,.767C1.8.781,1.8.791,1.8.8v1.63A1.5,1.5,0,0,1,.344,3.986H0V7H27V0Z" transform="translate(75 40)" fill="#cfb997" stroke="#231f20" stroke-linecap="round" stroke-linejoin="round" stroke-miterlimit="10" stroke-width="1"/>
    <path id="Fill_74" data-name="Fill 74" d="M7.5,22H0V10.388l.922-.82C.75,1.584,7.5,0,7.5,0s6.751,1.584,6.581,9.568l.919.82V22Z" transform="translate(81 51)" fill="#cfb997"/>
    <path id="Stroke_75" data-name="Stroke 75" d="M7.5,22H0V10.388l.922-.82C.75,1.584,7.5,0,7.5,0s6.751,1.584,6.581,9.568l.919.82V22Z" transform="translate(81 51)" fill="none" stroke="#231f20" stroke-linecap="round" stroke-linejoin="round" stroke-miterlimit="10" stroke-width="1"/>
    <text id="Mumbai-2" data-name="Mumbai" transform="translate(26 101)" font-size="13" font-family="SegoeUI, Segoe UI"><tspan x="0" y="0">Mumbai</tspan></text>
  </g>
</svg>
