<svg xmlns="http://www.w3.org/2000/svg" width="108" height="101.5" viewBox="0 0 108 101.5">
  <g id="Pune" transform="translate(0.5 0.5)">
    <path id="Stroke_2" data-name="Stroke 2" d="M0,52H35V0H0Z" transform="translate(0 17)" fill="#f7f6da" stroke="#231f20" stroke-linecap="round" stroke-linejoin="round" stroke-miterlimit="10" stroke-width="1"/>
    <path id="Stroke_5" data-name="Stroke 5" d="M0,11H35V0H0Z" transform="translate(0 17)" fill="none" stroke="#231f20" stroke-linecap="round" stroke-linejoin="round" stroke-miterlimit="10" stroke-width="1"/>
    <path id="Stroke_8" data-name="Stroke 8" d="M0,11H11V0H0Z" transform="translate(0 17)" fill="#ededc2" stroke="#231f20" stroke-linecap="round" stroke-linejoin="round" stroke-miterlimit="10" stroke-width="1"/>
    <path id="Stroke_11" data-name="Stroke 11" d="M0,11H12V0H0Z" transform="translate(11 17)" fill="#ededc2" stroke="#231f20" stroke-linecap="round" stroke-linejoin="round" stroke-miterlimit="10" stroke-width="1"/>
    <path id="Stroke_13" data-name="Stroke 13" d="M0,11H12V0H0Z" transform="translate(23 17)" fill="#ededc2" stroke="#231f20" stroke-linecap="round" stroke-linejoin="round" stroke-miterlimit="10" stroke-width="1"/>
    <path id="Stroke_15" data-name="Stroke 15" d="M0,5V0" transform="translate(7 33)" fill="none" stroke="#231f20" stroke-miterlimit="10" stroke-width="1"/>
    <path id="Stroke_17" data-name="Stroke 17" d="M0,5V0" transform="translate(14 33)" fill="none" stroke="#231f20" stroke-miterlimit="10" stroke-width="1"/>
    <path id="Stroke_19" data-name="Stroke 19" d="M0,5V0" transform="translate(20 33)" fill="none" stroke="#231f20" stroke-miterlimit="10" stroke-width="1"/>
    <path id="Stroke_21" data-name="Stroke 21" d="M0,5V0" transform="translate(27 33)" fill="none" stroke="#231f20" stroke-miterlimit="10" stroke-width="1"/>
    <path id="Stroke_23" data-name="Stroke 23" d="M0,52H35V0H0Z" transform="translate(72 17)" fill="#f7f6da" stroke="#231f20" stroke-linecap="round" stroke-linejoin="round" stroke-miterlimit="10" stroke-width="1"/>
    <path id="Stroke_26" data-name="Stroke 26" d="M0,11H35V0H0Z" transform="translate(72 17)" fill="none" stroke="#231f20" stroke-linecap="round" stroke-linejoin="round" stroke-miterlimit="10" stroke-width="1"/>
    <path id="Stroke_29" data-name="Stroke 29" d="M0,11H12V0H0Z" transform="translate(95 17)" fill="#ededc2" stroke="#231f20" stroke-linecap="round" stroke-linejoin="round" stroke-miterlimit="10" stroke-width="1"/>
    <path id="Stroke_32" data-name="Stroke 32" d="M0,11H11V0H0Z" transform="translate(84 17)" fill="#ededc2" stroke="#231f20" stroke-linecap="round" stroke-linejoin="round" stroke-miterlimit="10" stroke-width="1"/>
    <path id="Stroke_34" data-name="Stroke 34" d="M0,11H12V0H0Z" transform="translate(72 17)" fill="#ededc2" stroke="#231f20" stroke-linecap="round" stroke-linejoin="round" stroke-miterlimit="10" stroke-width="1"/>
    <path id="Stroke_36" data-name="Stroke 36" d="M0,5V0" transform="translate(99 33)" fill="none" stroke="#231f20" stroke-miterlimit="10" stroke-width="1"/>
    <path id="Stroke_38" data-name="Stroke 38" d="M0,5V0" transform="translate(93 33)" fill="none" stroke="#231f20" stroke-miterlimit="10" stroke-width="1"/>
    <path id="Stroke_40" data-name="Stroke 40" d="M0,5V0" transform="translate(86 33)" fill="none" stroke="#231f20" stroke-miterlimit="10" stroke-width="1"/>
    <path id="Stroke_42" data-name="Stroke 42" d="M0,5V0" transform="translate(80 33)" fill="none" stroke="#231f20" stroke-miterlimit="10" stroke-width="1"/>
    <path id="Stroke_44" data-name="Stroke 44" d="M44.83,0H3.173L0,7H48Z" transform="translate(29)" fill="#f7f6da" stroke="#231f20" stroke-linecap="round" stroke-linejoin="round" stroke-miterlimit="10" stroke-width="1"/>
    <path id="Stroke_47" data-name="Stroke 47" d="M41,9.983V0H0V9.983H1.951V62H38.978l0-40.759V9.983Z" transform="translate(33 7)" fill="#f7f6da" stroke="#231f20" stroke-linecap="round" stroke-linejoin="round" stroke-miterlimit="10" stroke-width="1"/>
    <path id="Stroke_50" data-name="Stroke 50" d="M8.032,10.029H10V0H0V13H8.032Z" transform="translate(64 7)" fill="#ededc2" stroke="#231f20" stroke-linecap="round" stroke-linejoin="round" stroke-miterlimit="10" stroke-width="1"/>
    <path id="Stroke_52" data-name="Stroke 52" d="M0,8H37V0H0Z" transform="translate(35 20)" fill="none" stroke="#231f20" stroke-linecap="round" stroke-linejoin="round" stroke-miterlimit="10" stroke-width="1"/>
    <path id="Stroke_56" data-name="Stroke 56" d="M0,13H10V0H0Z" transform="translate(43 7)" fill="#ededc2" stroke="#231f20" stroke-miterlimit="10" stroke-width="1"/>
    <path id="Stroke_58" data-name="Stroke 58" d="M0,0V10.029H1.9V13H10V0Z" transform="translate(33 7)" fill="#ededc2" stroke="#231f20" stroke-linecap="round" stroke-linejoin="round" stroke-miterlimit="10" stroke-width="1"/>
    <path id="Stroke_60" data-name="Stroke 60" d="M0,13H11V0H0Z" transform="translate(53 7)" fill="#ededc2" stroke="#231f20" stroke-miterlimit="10" stroke-width="1"/>
    <path id="Stroke_62" data-name="Stroke 62" d="M0,6V0" transform="translate(43 33)" fill="none" stroke="#231f20" stroke-miterlimit="10" stroke-width="1"/>
    <path id="Stroke_64" data-name="Stroke 64" d="M0,6V0" transform="translate(50 33)" fill="none" stroke="#231f20" stroke-miterlimit="10" stroke-width="1"/>
    <path id="Stroke_66" data-name="Stroke 66" d="M0,6V0" transform="translate(56 33)" fill="none" stroke="#231f20" stroke-miterlimit="10" stroke-width="1"/>
    <path id="Stroke_68" data-name="Stroke 68" d="M0,6V0" transform="translate(63 33)" fill="none" stroke="#231f20" stroke-miterlimit="10" stroke-width="1"/>
    <path id="Stroke_71" data-name="Stroke 71" d="M19.056,11.642C19.3,1.93,9.529,0,9.529,0S-.238,1.93,0,11.642V26.076H19.058Z" transform="translate(44 43)" fill="#ededc2" stroke="#231f20" stroke-linecap="round" stroke-linejoin="round" stroke-miterlimit="10" stroke-width="1"/>
    <text id="Pune-2" data-name="Pune" transform="translate(36 98)" font-size="13" font-family="SegoeUI, Segoe UI"><tspan x="0" y="0">Pune</tspan></text>
  </g>
</svg>
